# Blender 3.4.0
# www.blender.org
o Main_Room_Collider
v -3.000002 2.502325 -1.999997
v -3.000002 2.488360 -3.713235
v -0.966665 2.500000 -7.125844
v -2.800000 0.300000 -7.599997
v -1.552720 1.102639 -7.630650
v -2.933538 1.907661 -7.630651
v -5.033335 2.500000 -7.125846
v -3.199999 0.300000 -7.599997
v -1.552721 1.102639 -7.179996
v -0.982785 1.102639 -6.590534
v -1.182862 1.102639 -6.999995
v -1.182863 1.102639 -6.590535
v -4.447279 1.102639 -7.630651
v -1.182861 1.102639 -7.630650
v -0.982784 1.102639 -7.630649
v -2.933539 1.907661 -7.099997
v -3.000001 1.672187 -3.697852
v -2.066717 2.499115 -7.114532
v -2.740000 0.300004 -7.108788
v -3.066461 1.907661 -7.630651
v -4.447279 1.102639 -7.179996
v -5.017215 1.102639 -6.590536
v -4.817138 1.102639 -6.999997
v -4.817138 1.102639 -6.590537
v -4.817138 1.102639 -7.630651
v -5.017215 1.102639 -7.630651
v -3.066460 1.907661 -7.099997
v -3.933283 2.499115 -7.114533
v -3.260000 0.300004 -7.108788
v -2.298515 2.329557 -7.122264
v -2.561207 1.907126 -6.594534
v -3.701485 2.329557 -7.122265
v -3.438793 1.907126 -6.594534
v -0.966668 2.499999 -7.703374
v -1.626696 2.499468 -7.119057
v -5.033331 2.499999 -7.703376
v -4.373303 2.499468 -7.119058
v -3.438793 2.102243 -6.594534
v -3.773810 0.701321 -7.109763
v -2.561207 2.102243 -6.594534
v -2.226189 0.701321 -7.109762
v -2.563179 0.501306 -7.631355
v -2.501982 0.500663 -7.109275
v -2.662678 0.260590 -6.979997
v -3.436820 0.501306 -7.631355
v -3.498018 0.500663 -7.109275
v -3.337322 0.260590 -6.979997
v -2.530313 2.160000 -7.129997
v -2.494819 2.203859 -7.667012
v -3.469687 2.160000 -7.129997
v -3.505180 2.203859 -7.667013
v -4.300258 1.404391 -7.110089
v -4.127965 1.504883 -6.592535
v -1.699741 1.404391 -7.110088
v -1.872035 1.504883 -6.592535
v -1.527449 1.303761 -6.591535
v -1.527448 1.303807 -7.069996
v -4.472551 1.303761 -6.591537
v -2.698218 1.908415 -6.976926
v -3.000000 1.907661 -7.630651
v -3.000000 1.907126 -6.594534
v -3.000000 1.907661 -7.099997
v -3.000000 0.300000 -7.599997
v -3.000000 0.300004 -7.108788
v -3.000000 0.260590 -6.979998
v -4.472551 1.303807 -7.069998
v -3.301782 1.908415 -6.976926
v -3.000000 1.578219 -7.632172
v -3.000000 1.853474 -6.574201
v -3.000000 1.830608 -7.099997
v -4.680000 1.102639 -7.179997
v -4.899498 1.297756 -6.590537
v -4.110544 0.901980 -7.129997
v -3.439696 1.909276 -6.980123
v -3.724540 2.351957 -7.685193
v -3.783379 1.706004 -6.593535
v -3.783983 1.707487 -7.089904
v -4.373303 2.742433 -7.119058
v -3.933283 2.742079 -7.114533
v -5.033335 2.605000 -7.125846
v -4.372952 2.732433 -7.078630
v -3.790000 2.567522 -7.102051
v -3.932932 2.732080 -7.074105
v -4.932983 2.595000 -7.085418
v -4.000000 1.200000 -7.119997
v -3.386819 1.578219 -7.632172
v -4.500000 0.970000 -6.999997
v -4.600000 0.993400 -6.570204
v -3.209839 1.832222 -7.149997
v -3.208936 1.853474 -6.574201
v -3.400000 2.030000 -7.619997
v -3.915519 1.418267 -7.129997
v -3.898108 1.451230 -6.572202
v -4.242694 1.250108 -6.571203
v -4.242694 1.226754 -7.069998
v -3.000000 2.102243 -6.594534
v -3.400000 2.000000 -7.149997
v -3.553522 1.652352 -6.573201
v -3.554126 1.630434 -7.132428
v -4.373303 2.399690 -7.119058
v -4.094691 2.399335 -7.114533
v -4.500000 0.230000 -6.999997
v -3.000000 2.096781 -6.561096
v -4.600000 0.230000 -6.590537
v -5.596667 1.700000 -6.516706
v -3.540605 0.399011 -7.035661
v -3.973199 0.670000 -7.059999
v -3.788340 2.330236 -7.098700
v -3.000000 0.292730 -7.739997
v -2.999999 0.292730 -8.329997
v -2.999999 1.600000 -8.329997
v -3.782722 1.001826 -7.082466
v -3.778673 0.996963 -7.114997
v -3.994923 1.180664 -7.078626
v -3.620000 0.750000 -7.099997
v -3.650000 0.720000 -7.069997
v -3.540605 0.250000 -7.035661
v -3.540605 0.399011 -7.666744
v -3.540605 0.250000 -7.669997
v -1.319999 1.102639 -7.179995
v -1.100502 1.297756 -6.590535
v -1.889455 0.901980 -7.129996
v -2.560303 1.909276 -6.980123
v -2.275460 2.351957 -7.685192
v -2.216621 1.706004 -6.593534
v -2.216017 1.707487 -7.089903
v -1.626696 2.742433 -7.119057
v -2.066717 2.742079 -7.114532
v -0.966665 2.605000 -7.125844
v -1.627047 2.732433 -7.078629
v -2.209999 2.567522 -7.102050
v -2.067068 2.732080 -7.074104
v -1.067016 2.595000 -7.085416
v -2.000000 1.200000 -7.119996
v -2.613180 1.578219 -7.632172
v -1.499999 0.970000 -6.999995
v -1.400000 0.993400 -6.570202
v -2.790160 1.832222 -7.149997
v -2.791064 1.853474 -6.574201
v -2.599999 2.030000 -7.619997
v -2.084481 1.418267 -7.129996
v -2.101892 1.451230 -6.572201
v -1.757306 1.250108 -6.571201
v -1.757305 1.226754 -7.069996
v -2.599999 2.000000 -7.149997
v -2.446478 1.652352 -6.573201
v -2.445874 1.630434 -7.132427
v -1.626696 2.399690 -7.119057
v -1.905308 2.399335 -7.114532
v -1.499999 0.290000 -6.999995
v -1.400000 0.290000 -6.590535
v -0.403331 1.700000 -6.516704
v -2.459395 0.399011 -7.035660
v -2.026801 0.670000 -7.059999
v -2.211659 2.330236 -7.098699
v -2.217277 1.001826 -7.082465
v -2.221327 0.996963 -7.114996
v -2.005077 1.180664 -7.078625
v -2.379999 0.750000 -7.099997
v -2.349999 0.720000 -7.069996
v -2.459395 0.269768 -7.035660
v -2.459394 0.399011 -7.666743
v -2.459394 0.269930 -7.669997
v -1.527449 1.498878 -6.591535
v -1.552720 1.578219 -7.632171
v -1.182861 1.578219 -7.632170
v -1.027813 1.672187 -7.599997
v -2.229999 1.578219 -7.632171
v -2.279999 0.790000 -7.649997
v -1.501375 0.292369 -7.649983
v -1.499999 0.970000 -7.631078
v -1.872035 1.700000 -6.592535
v -1.027813 1.672187 -6.670039
v -0.403331 0.299999 -6.516704
v -2.216621 1.901121 -6.593534
v -2.563071 2.096781 -6.561096
v -1.529312 1.493416 -6.558097
v -1.873898 1.694538 -6.559096
v -2.218485 1.895660 -6.560096
v -2.490000 0.460000 -7.049997
v -2.199998 1.607270 -8.329997
v -2.313179 0.292730 -7.799997
v -4.472551 1.498878 -6.591537
v -3.000000 1.802423 -7.609997
v -2.286818 0.307270 -8.329997
v -2.599999 1.603634 -8.329997
v -2.656589 0.292730 -7.749997
v -2.643409 0.300000 -8.329997
v -0.966666 2.400221 -7.599995
v -1.066665 2.400221 -7.099995
v -1.894691 2.400277 -7.619996
v -1.620326 2.400255 -7.619996
v -1.699999 2.330513 -7.088150
v -2.799999 1.798788 -7.589997
v -1.043195 2.488359 -6.662240
v -0.879553 2.500000 -7.151491
v -0.880447 2.497263 -7.048502
v -4.447279 1.578219 -7.632172
v -4.817138 1.578219 -7.632172
v -4.972186 1.672187 -7.599998
v -3.770000 1.578219 -7.632172
v -3.720000 0.790000 -7.649997
v -4.500832 0.235181 -7.650165
v -4.500000 0.970000 -7.631080
v -4.127965 1.700000 -6.592535
v -4.972187 1.672187 -6.670041
v -5.596667 0.299999 -6.516706
v -3.783379 1.901121 -6.593535
v -3.436929 2.096781 -6.561096
v -4.897634 1.292295 -6.557099
v -4.470687 1.493416 -6.558098
v -4.126101 1.694538 -6.559098
v -3.781516 1.895660 -6.560097
v -3.510000 0.460000 -7.049997
v -3.800000 1.607270 -8.329997
v -3.686820 0.292730 -7.799998
v -3.713181 0.307270 -8.329997
v 0.545382 2.503976 -6.666950
v -0.425917 2.494961 -7.665361
v 2.500000 2.500000 -6.665348
v -1.000001 1.672187 -3.697851
v 0.629999 2.502324 -1.999996
v -3.400000 1.603634 -8.329997
v -4.379673 2.400255 -7.619997
v -0.734556 2.491660 -7.163801
v 0.499999 2.504862 -9.170042
v -4.105308 2.400277 -7.619997
v -2.056102 2.500056 -7.703373
v -3.343410 0.292730 -7.749998
v -1.043196 2.488359 -3.713235
v 2.499999 2.500000 -1.999997
v -3.356590 0.300000 -8.329997
v -5.033334 2.400221 -7.599997
v 2.500000 2.500000 -12.000497
v -4.933334 2.400221 -7.099997
v -3.000000 2.500056 -7.703373
v -2.999999 2.502431 -9.169811
v -2.999997 2.500000 -11.999996
v -4.300000 2.330513 -7.088151
v -3.200000 1.798788 -7.589997
v -4.956805 2.488359 -6.662242
v -5.120446 2.500000 -7.151493
v -5.119553 2.497263 -7.048504
v -6.545382 2.503976 -6.666954
v -5.574082 2.494961 -7.665364
v -8.500000 2.500000 -6.665354
v -5.000002 1.672187 -3.697853
v -6.630004 2.502324 -2.000000
v -5.265443 2.491660 -7.163803
v -6.499996 2.504862 -9.170046
v -3.943897 2.500056 -7.703374
v -4.956807 2.488359 -3.713237
v -8.500004 2.500000 -2.000003
v -8.499995 2.500000 -12.000503
v -3.375001 1.699999 -1.669997
v -3.375001 0.299999 -1.596663
v -2.625004 0.299999 -1.596663
v -2.625003 1.699999 -3.000038
v -2.625003 0.299999 -3.073372
v -2.625003 1.699999 -3.073082
v -2.625004 1.699999 -1.596953
v -0.400004 0.300000 -1.599995
v -0.400002 0.300000 -3.070036
v -3.375001 1.699999 -3.000038
v -3.375001 0.299999 -3.073372
v -3.375001 1.699999 -3.073082
v -3.375001 1.699999 -1.596953
v -0.400002 1.700000 -3.070036
v -5.600001 0.300000 -1.599998
v -5.600001 0.300000 -3.070039
v -5.600001 1.700000 -3.070039
v -0.400004 1.700000 -1.599995
v -2.400004 0.299999 -1.669996
v 0.499997 0.300000 -1.666659
v 0.500396 1.662316 -1.666659
v -2.400003 1.699999 -2.999996
v 0.499997 0.300000 -1.999993
v -2.625004 0.299999 -1.669997
v -5.600001 1.700000 -1.599998
v -3.600000 0.299999 -1.669997
v -6.500002 0.300000 -1.666663
v 0.494995 1.806029 -0.960974
v -0.000005 0.300000 -0.999994
v -1.000002 0.299999 -3.670037
v -0.999999 0.299999 -5.120038
v 0.494996 2.538193 -1.723322
v 0.639477 1.670000 -1.999993
v 0.626008 1.806824 -0.971087
v 0.622790 1.677205 -0.977198
v 0.625828 2.528884 -1.725760
v 0.625529 2.309900 -1.198598
v 0.494995 1.672082 -0.972075
v 0.494995 2.316361 -1.191815
v 0.499996 1.663969 -1.999993
v 0.494996 2.483588 -1.434248
v -6.500401 1.662316 -1.666663
v 0.625678 2.475703 -1.438859
v -3.600001 1.699999 -2.999997
v -6.500002 0.300000 -1.999997
v -3.375000 0.299999 -1.669997
v -3.000003 1.672187 -0.972183
v -3.000003 1.800000 -0.960663
v -3.000001 0.299999 -3.670039
v -3.000002 0.299999 -1.669997
v -6.495001 1.806029 -0.960978
v 0.494995 2.030730 -1.035116
v 0.625769 2.027897 -1.043564
v -6.000001 0.300000 -0.999997
v -5.000001 0.299999 -3.670039
v -5.000000 0.299999 -5.220040
v -2.400004 1.699999 -1.669996
v -2.625003 0.299999 -2.999996
v 0.499996 0.300000 -0.999993
v -2.625003 1.699999 -2.334996
v -2.625004 0.299999 -2.334996
v -2.400004 0.299999 -2.334996
v 0.411370 3.886334 -9.022579
v 0.228497 3.886334 -9.051544
v 0.144439 3.886334 -8.886572
v 0.275361 3.886334 -8.755650
v 0.440334 3.886334 -8.839706
v 0.411370 2.499666 -9.022579
v 0.440334 2.499666 -8.839706
v 0.275361 2.499666 -8.755650
v -6.495001 2.538193 -1.723326
v -6.639482 1.670000 -1.999997
v -6.626014 1.806824 -0.971090
v -6.622796 1.677205 -0.977202
v -6.625833 2.528884 -1.725764
v -6.625534 2.309900 -1.198602
v -6.495001 1.672082 -0.972079
v -6.495001 2.316361 -1.191819
v -6.500001 1.663969 -1.999997
v 0.144439 2.499666 -8.886572
v 0.228497 2.499666 -9.051544
v 0.352541 3.886334 -2.258669
v 0.381505 3.886334 -2.441542
v -6.495002 2.483588 -1.434252
v -3.000003 2.030730 -1.035118
v -6.625684 2.475703 -1.438863
v -3.000003 2.316361 -1.191817
v 0.216534 3.886334 -2.525600
v 0.085611 3.886334 -2.394678
v 0.169668 3.886334 -2.229704
v 0.352541 2.499666 -2.258669
v -6.495001 2.030730 -1.035120
v -6.625774 2.027897 -1.043568
v -3.000003 2.483588 -1.434250
v -3.000002 2.538193 -1.723324
v -3.600000 1.699999 -1.669997
v -3.375000 0.299999 -2.999996
v -6.500002 0.300000 -0.999997
v -3.000002 0.299999 -2.334997
v -3.375001 1.699999 -2.334996
v -3.375001 0.299999 -2.334996
v -3.600001 0.299999 -2.334997
v -6.411367 3.886334 -9.022583
v -6.228495 3.886334 -9.051548
v -6.144437 3.886334 -8.886576
v -6.275359 3.886334 -8.755653
v -6.440332 3.886334 -8.839710
v -6.411367 2.499666 -9.022583
v -6.440332 2.499666 -8.839710
v -6.275359 2.499666 -8.755653
v -6.144437 2.499666 -8.886576
v -6.228495 2.499666 -9.051548
v -6.352546 3.886334 -2.258672
v -6.381510 3.886334 -2.441545
v -6.216538 3.886334 -2.525603
v -6.085615 3.886334 -2.394681
v -6.169673 3.886334 -2.229707
v -6.352546 2.499666 -2.258672
v -6.169673 2.499666 -2.229707
v -6.085615 2.499666 -2.394681
v -6.216538 2.499666 -2.525603
v -6.381510 2.499666 -2.441545
v -7.000000 2.500000 -2.099996
v -7.000000 2.900000 -2.099996
v -7.000000 2.500000 -2.139996
v -7.000000 2.900000 -2.139996
v -4.500002 -0.000000 -0.999997
v -6.000001 0.000000 -0.999997
v -4.500001 0.299999 -0.999997
v -6.500002 0.000000 -0.999997
v -6.500002 0.000000 -1.666663
v -3.600000 0.299999 -2.999997
v -6.500002 0.000000 -1.999997
v -3.600001 1.699999 -2.334997
v -2.625004 1.699999 -1.669997
v -3.000003 0.299999 -0.999996
v -3.000003 -0.000000 -0.999996
v -3.000002 0.299999 -3.002518
v -3.000002 2.900000 -2.139994
v -3.000002 2.500000 -2.099994
v -3.000002 2.500000 -2.139994
v -3.000002 2.900000 -2.099994
v 0.169668 2.499666 -2.229704
v 0.085611 2.499666 -2.394678
v 0.216534 2.499666 -2.525600
v 0.381506 2.499666 -2.441542
v 0.999995 2.500000 -2.099992
v 0.999995 2.900000 -2.099992
v 0.999995 2.500000 -2.139992
v 0.999995 2.900000 -2.139992
v -1.500004 -0.000000 -0.999995
v -0.000005 0.000000 -0.999994
v -1.500004 0.299999 -0.999995
v 0.499996 0.000000 -0.999993
v 0.499997 0.000000 -1.666659
v -2.400003 0.299999 -2.999996
v 0.499997 0.000000 -1.999993
v -2.400004 1.699999 -2.334996
v -2.001112 0.264696 -4.650068
v -3.001386 0.269579 -4.649983
v -4.000805 0.232618 -5.650167
v -4.000750 0.226571 -4.650187
v -4.001190 0.255746 -6.650044
v -4.977712 0.256528 -6.562557
v -3.000985 0.251681 -5.650109
v -3.001044 0.257728 -6.650089
v -2.001285 0.282837 -7.650017
v -2.001458 0.285973 -5.649957
v -2.001226 0.276790 -6.650037
v -0.984139 0.294172 -6.559730
v -2.001082 0.261673 -4.150082
v -3.001353 0.266556 -4.149991
v -2.501019 0.255165 -4.650104
v -1.501202 0.274228 -4.650043
v -4.000721 0.223548 -4.150193
v -4.500658 0.217040 -4.650213
v -4.000776 0.229595 -5.150174
v -4.968688 1.254786 -6.550414
v -4.000891 0.241689 -7.080144
v -3.001017 0.254704 -6.150102
v -1.000029 1.276964 -6.548733
v -3.501280 0.265278 -6.650019
v -2.001197 0.273767 -6.150043
v -2.001256 0.279814 -7.080023
v -2.501081 0.261212 -5.650081
v -3.000958 0.248657 -5.150122
v -2.001428 0.282950 -5.149972
v -1.501551 0.295505 -5.649930
v -4.500713 0.223087 -5.650194
v -3.500898 0.242150 -5.650141
v -3.501293 0.260048 -4.650010
v -4.001161 0.252723 -6.150059
v -2.501137 0.267259 -6.650063
v -1.501289 0.283298 -6.150017
v -2.501104 0.264236 -6.150069
v -3.501251 0.262254 -6.150025
v -4.500746 0.226110 -6.150187
v -3.501267 0.257024 -4.150023
v -3.500866 0.239126 -5.150148
v -4.500628 0.214017 -4.150219
v -4.500687 0.220064 -5.150208
v -1.501172 0.271204 -4.150048
v -1.501521 0.292481 -5.149937
v -2.500993 0.252142 -4.150108
v -2.501049 0.258189 -5.150089
v -2.000001 1.725500 -3.576040
v -1.880169 1.725500 -3.488976
v -1.925941 1.725500 -3.348103
v -2.074063 1.725500 -3.348103
v -2.119834 1.725500 -3.488976
v -2.000001 0.279499 -3.576040
v -2.119835 0.279499 -3.488976
v -2.074063 0.279499 -3.348103
v -1.925941 0.279499 -3.348103
v -1.880168 0.279499 -3.488976
v -4.000001 1.725500 -3.576040
v -3.880168 1.725500 -3.488977
v -3.925941 1.725500 -3.348103
v -4.074062 1.725500 -3.348103
v -4.119834 1.725500 -3.488977
v -4.000001 0.279499 -3.576040
v -4.119835 0.279499 -3.488977
v -4.074062 0.279499 -3.348103
v -3.925941 0.279499 -3.348103
v -3.880168 0.279499 -3.488977
v -1.000001 1.725500 -1.093996
v -1.119835 1.725500 -1.181060
v -1.074062 1.725500 -1.321932
v -0.925941 1.725500 -1.321932
v -0.880168 1.725500 -1.181060
v -1.000001 0.279499 -1.093996
v -0.880169 0.279499 -1.181060
v -0.925941 0.279499 -1.321932
v -1.074063 0.279499 -1.321932
v -1.119835 0.279499 -1.181060
v -2.000001 1.725500 -1.093997
v -2.119835 1.725500 -1.181060
v -2.074063 1.725500 -1.321932
v -1.925940 1.725500 -1.321932
v -1.880168 1.725500 -1.181060
v -2.000001 0.279499 -1.093997
v -1.880168 0.279499 -1.181060
v -1.925941 0.279499 -1.321932
v -2.074063 0.279499 -1.321932
v -2.119835 0.279499 -1.181060
v -5.000001 1.725500 -1.093997
v -5.119835 1.725500 -1.181061
v -5.074062 1.725500 -1.321933
v -4.925941 1.725500 -1.321933
v -4.880168 1.725500 -1.181061
v -5.000001 0.279499 -1.093997
v -4.880168 0.279499 -1.181061
v -4.925941 0.279499 -1.321933
v -5.074063 0.279499 -1.321933
v -5.119835 0.279499 -1.181061
v -4.000001 1.725500 -1.093996
v -4.119834 1.725500 -1.181060
v -4.074062 1.725500 -1.321932
v -3.925940 1.725500 -1.321932
v -3.880168 1.725500 -1.181060
v -4.000001 0.279499 -1.093996
v -3.880168 0.279499 -1.181060
v -3.925940 0.279499 -1.321932
v -4.074062 0.279499 -1.321932
v -4.119835 0.279499 -1.181060
v -5.059362 1.725500 -3.610680
v -5.036191 1.725500 -3.464381
v -5.168169 1.725500 -3.397135
v -5.272906 1.725500 -3.501872
v -5.205661 1.725500 -3.633850
v -5.059362 0.279499 -3.610680
v -5.205661 0.279499 -3.633850
v -5.272907 0.279499 -3.501872
v -5.168169 0.279499 -3.397135
v -5.036191 0.279499 -3.464380
v -5.094000 1.725500 -4.670040
v -5.181064 1.725500 -4.550207
v -5.321937 1.725500 -4.595979
v -5.321937 1.725500 -4.744101
v -5.181064 1.725500 -4.789873
v -5.094000 0.279499 -4.670040
v -5.181064 0.279499 -4.789873
v -5.321938 0.279499 -4.744101
v -5.321937 0.279499 -4.595979
v -5.181064 0.279499 -4.550207
v -0.906002 1.725500 -4.670038
v -0.818938 1.725500 -4.789871
v -0.678065 1.725500 -4.744100
v -0.678065 1.725500 -4.595978
v -0.818938 1.725500 -4.550205
v -0.906002 0.279499 -4.670038
v -0.818939 0.279499 -4.550205
v -0.678065 0.279499 -4.595978
v -0.678065 0.279499 -4.744100
v -0.818939 0.279499 -4.789871
v -0.940641 1.725500 -3.610678
v -0.794343 1.725500 -3.633849
v -0.727096 1.725500 -3.501871
v -0.831835 1.725500 -3.397133
v -0.963812 1.725500 -3.464379
v -0.940641 0.279499 -3.610678
v -0.963812 0.279499 -3.464379
v -0.831835 0.279499 -3.397133
v -0.727097 0.279499 -3.501871
v -0.794343 0.279499 -3.633849
v 0.299998 1.665500 -1.081395
v 0.431816 1.665500 -1.177165
v 0.381467 1.665500 -1.332125
v 0.218532 1.665500 -1.332125
v 0.168183 1.665500 -1.177166
v 0.299998 0.339499 -1.081395
v 0.168181 0.339499 -1.177166
v 0.218531 0.339499 -1.332125
v 0.381465 0.339499 -1.332125
v 0.431816 0.339499 -1.177165
v -6.300001 1.665500 -1.081397
v -6.431818 1.665500 -1.177167
v -6.381469 1.665500 -1.332126
v -6.218534 1.665500 -1.332126
v -6.168185 1.665500 -1.177166
v -6.300001 0.339500 -1.081397
v -6.168185 0.339500 -1.177166
v -6.218534 0.339500 -1.332126
v -6.381469 0.339500 -1.332126
v -6.431818 0.339500 -1.177167
v -6.539999 3.793727 -9.210466
v -5.005522 4.609826 -7.675560
v -6.540000 4.609826 -9.209679
v -5.005521 3.793786 -7.675560
v -0.994478 4.609826 -7.675559
v 0.539640 4.609825 -9.210038
v -0.994478 3.793785 -7.675559
v 0.540000 3.793726 -9.210464
v 0.539999 4.609825 -2.130399
v 0.540426 3.793726 -2.130039
v -0.994479 4.609826 -3.664517
v -0.994479 3.793785 -3.664517
v -6.539640 4.609826 -2.130039
v -6.540000 3.793727 -2.129613
v -5.005523 4.609826 -3.664518
v -5.005522 3.793786 -3.664518
v -5.133692 2.511334 -8.907832
v -5.178118 2.511334 -8.771107
v -5.321879 2.511334 -8.771107
v -5.366304 2.511334 -8.907832
v -5.249998 2.511334 -8.992334
v -5.366304 3.911017 -8.907832
v -5.321879 3.911017 -8.771107
v -5.178117 3.911017 -8.771107
v -5.133692 3.911017 -8.907832
v -5.249997 3.911017 -8.992334
v -4.249998 3.911017 -8.992333
v -4.133693 3.911017 -8.907831
v -4.178118 3.911017 -8.771105
v -4.321880 3.911017 -8.771106
v -4.366304 3.911017 -8.907832
v -4.249998 2.511334 -8.992333
v -4.366304 2.511334 -8.907832
v -4.321880 2.511334 -8.771106
v -4.178118 2.511334 -8.771105
v -4.133692 2.511334 -8.907831
v -6.316801 3.892067 -6.920043
v -6.232299 3.892067 -7.036348
v -6.095573 3.892067 -6.991923
v -6.095573 3.892067 -6.848161
v -6.232299 3.892067 -6.803736
v -6.316801 2.491502 -6.920043
v -6.232299 2.491502 -6.803736
v -6.095573 2.491502 -6.848161
v -6.095573 2.491502 -6.991923
v -6.232299 2.491502 -7.036349
v -6.232298 2.491502 -8.036348
v -6.095572 2.491502 -7.991923
v -6.095572 2.491502 -7.848162
v -6.232299 2.491502 -7.803735
v -6.316800 2.491502 -7.920043
v -6.232298 3.892067 -7.803736
v -6.095572 3.892067 -7.848162
v -6.095572 3.892067 -7.991923
v -6.232298 3.892067 -8.036348
v -6.316800 3.892067 -7.920043
v -6.232300 2.491502 -5.786348
v -6.095574 2.491502 -5.741922
v -6.095574 2.491502 -5.598161
v -6.232300 2.491502 -5.553735
v -6.316802 2.491502 -5.670042
v -6.232300 3.892067 -5.553735
v -6.095574 3.892067 -5.598161
v -6.095574 3.892067 -5.741922
v -6.232300 3.892067 -5.786347
v -6.316802 3.892067 -5.670042
v -0.866309 2.511334 -2.432247
v -0.821883 2.511334 -2.568973
v -0.678122 2.511334 -2.568973
v -0.633696 2.511334 -2.432247
v -0.750003 2.511334 -2.347745
v -0.633696 3.911016 -2.432247
v -0.678121 3.911016 -2.568973
v -0.821883 3.911016 -2.568973
v -0.866308 3.911016 -2.432247
v -0.750002 3.911016 -2.347745
v -1.750002 3.911016 -2.347745
v -1.866307 3.911016 -2.432247
v -1.821882 3.911016 -2.568973
v -1.678120 3.911016 -2.568973
v -1.633696 3.911016 -2.432247
v -1.750002 2.511334 -2.347745
v -1.633695 2.511334 -2.432247
v -1.678120 2.511334 -2.568973
v -1.821882 2.511334 -2.568973
v -1.866308 2.511334 -2.432247
v 0.316800 3.892067 -4.420036
v 0.232298 3.892067 -4.303731
v 0.095572 3.892067 -4.348156
v 0.095572 3.892067 -4.491917
v 0.232298 3.892067 -4.536343
v 0.316800 2.491502 -4.420036
v 0.232298 2.491502 -4.536343
v 0.095572 2.491502 -4.491917
v 0.095572 2.491502 -4.348156
v 0.232298 2.491502 -4.303730
v 0.232298 2.491502 -3.303730
v 0.095572 2.491502 -3.348155
v 0.095572 2.491502 -3.491917
v 0.232298 2.491502 -3.536344
v 0.316799 2.491502 -3.420037
v 0.232299 3.892067 -3.536344
v 0.095572 3.892067 -3.491917
v 0.095573 3.892067 -3.348155
v 0.232299 3.892067 -3.303731
v 0.316800 3.892067 -3.420037
v 0.232299 2.491502 -5.553731
v 0.095573 2.491502 -5.598156
v 0.095573 2.491502 -5.741918
v 0.232299 2.491502 -5.786344
v 0.316801 2.491502 -5.670037
v 0.232299 3.892067 -5.786344
v 0.095573 3.892067 -5.741918
v 0.095573 3.892067 -5.598156
v 0.232299 3.892067 -5.553731
v 0.316801 3.892067 -5.670037
v 0.237792 2.511334 -7.803731
v 0.101065 2.511334 -7.848157
v 0.101066 2.511334 -7.991918
v 0.237792 2.511334 -8.036345
v 0.322294 2.511334 -7.920038
v 0.237792 3.911899 -8.036345
v 0.101066 3.911899 -7.991918
v 0.101065 3.911899 -7.848157
v 0.237792 3.911899 -7.803731
v 0.322294 3.911899 -7.920038
v 0.322293 3.911899 -6.920038
v 0.237792 3.911899 -6.803732
v 0.101066 3.911899 -6.848157
v 0.101066 3.911899 -6.991919
v 0.237792 3.911899 -7.036344
v 0.322293 2.511334 -6.920038
v 0.237792 2.511334 -7.036344
v 0.101066 2.511334 -6.991919
v 0.101066 2.511334 -6.848157
v 0.237792 2.511334 -6.803731
v -1.749998 3.891184 -8.986840
v -1.633692 3.891184 -8.902338
v -1.678117 3.891184 -8.765613
v -1.821879 3.891184 -8.765613
v -1.866304 3.891184 -8.902338
v -1.749998 2.491502 -8.986840
v -1.866304 2.491502 -8.902338
v -1.821879 2.491502 -8.765613
v -1.678117 2.491502 -8.765613
v -1.633692 2.491502 -8.902338
v -0.633692 2.491502 -8.902337
v -0.678118 2.491502 -8.765612
v -0.821879 2.491502 -8.765612
v -0.866304 2.491502 -8.902338
v -0.749998 2.491502 -8.986838
v -0.866304 3.891184 -8.902338
v -0.821879 3.891184 -8.765612
v -0.678117 3.891184 -8.765612
v -0.633692 3.891184 -8.902337
v -0.749998 3.891184 -8.986838
v -2.883693 2.491502 -8.902339
v -2.928118 2.491502 -8.765614
v -3.071880 2.491502 -8.765614
v -3.116305 2.491502 -8.902339
v -2.999998 2.491502 -8.986840
v -3.116304 3.891184 -8.902339
v -3.071880 3.891184 -8.765614
v -2.928118 3.891184 -8.765614
v -2.883693 3.891184 -8.902339
v -2.999998 3.891184 -8.986840
v -6.237794 2.511334 -3.536349
v -6.101068 2.511334 -3.491923
v -6.101068 2.511334 -3.348162
v -6.237794 2.511334 -3.303736
v -6.322296 2.511334 -3.420043
v -6.237794 3.911900 -3.303736
v -6.101068 3.911900 -3.348162
v -6.101068 3.911900 -3.491923
v -6.237794 3.911900 -3.536348
v -6.322296 3.911900 -3.420043
v -6.322295 3.911900 -4.420042
v -6.237793 3.911900 -4.536348
v -6.101067 3.911900 -4.491922
v -6.101068 3.911900 -4.348161
v -6.237793 3.911900 -4.303736
v -6.322296 2.511334 -4.420042
v -6.237794 2.511334 -4.303735
v -6.101068 2.511334 -4.348161
v -6.101068 2.511334 -4.491922
v -6.237793 2.511334 -4.536348
v -4.250005 3.891185 -2.353239
v -4.366310 3.891185 -2.437741
v -4.321886 3.891185 -2.574467
v -4.178123 3.891185 -2.574466
v -4.133698 3.891185 -2.437740
v -4.250005 2.491502 -2.353239
v -4.133698 2.491502 -2.437740
v -4.178123 2.491502 -2.574466
v -4.321886 2.491502 -2.574467
v -4.366311 2.491502 -2.437741
v -5.366311 2.491502 -2.437741
v -5.321886 2.491502 -2.574467
v -5.178124 2.491502 -2.574468
v -5.133698 2.491502 -2.437742
v -5.250005 2.491502 -2.353240
v -5.133698 3.891185 -2.437742
v -5.178124 3.891185 -2.574468
v -5.321886 3.891185 -2.574467
v -5.366311 3.891185 -2.437741
v -5.250005 3.891185 -2.353240
v -3.116311 2.491502 -2.437739
v -3.071885 2.491502 -2.574465
v -2.928123 2.491502 -2.574465
v -2.883698 2.491502 -2.437739
v -3.000005 2.491502 -2.353238
v -2.883699 3.891184 -2.437739
v -2.928123 3.891184 -2.574465
v -3.071885 3.891184 -2.574465
v -3.116310 3.891184 -2.437739
v -3.000005 3.891184 -2.353238
v -1.989994 3.911016 -7.741158
v -2.106299 3.911016 -7.825660
v -2.061874 3.911016 -7.962387
v -1.918112 3.911016 -7.962385
v -1.873688 3.911016 -7.825659
v -1.989994 2.511334 -7.741158
v -1.873688 2.511334 -7.825659
v -1.918112 2.511334 -7.962385
v -2.061874 2.511334 -7.962387
v -2.106300 2.511334 -7.825660
v -3.999997 3.891184 -7.746654
v -4.116302 3.891185 -7.831155
v -4.071878 3.891185 -7.967881
v -3.928116 3.891184 -7.967881
v -3.883691 3.891184 -7.831155
v -3.999998 2.491502 -7.746654
v -3.883691 2.491502 -7.831155
v -3.928116 2.491502 -7.967881
v -4.071878 2.491502 -7.967881
v -4.116303 2.491502 -7.831155
v -4.010005 3.911016 -3.598919
v -3.893700 3.911016 -3.514417
v -3.938125 3.911016 -3.377691
v -4.081887 3.911017 -3.377691
v -4.126311 3.911017 -3.514417
v -4.010005 2.511334 -3.598919
v -4.126312 2.511334 -3.514417
v -4.081887 2.511334 -3.377691
v -3.938125 2.511334 -3.377691
v -3.893700 2.511334 -3.514417
v -2.000002 3.891184 -3.593425
v -1.883697 3.891184 -3.508923
v -1.928122 3.891184 -3.372197
v -2.071884 3.891184 -3.372197
v -2.116308 3.891184 -3.508923
v -2.000002 2.491502 -3.593425
v -2.116309 2.491502 -3.508923
v -2.071884 2.491502 -3.372197
v -1.928122 2.491502 -3.372197
v -1.883697 2.491502 -3.508923
v -0.928881 3.911016 -4.660033
v -0.844379 3.911016 -4.776339
v -0.707653 3.911016 -4.731914
v -0.707653 3.911016 -4.588152
v -0.844379 3.911016 -4.543726
v -0.928881 2.511334 -4.660033
v -0.844380 2.511334 -4.543726
v -0.707654 2.511334 -4.588152
v -0.707653 2.511334 -4.731914
v -0.844379 2.511334 -4.776340
v -0.923385 3.891184 -6.670036
v -0.838884 3.891184 -6.786343
v -0.702158 3.891184 -6.741917
v -0.702158 3.891184 -6.598156
v -0.838884 3.891184 -6.553730
v -0.923385 2.491502 -6.670036
v -0.838884 2.491502 -6.553730
v -0.702158 2.491502 -6.598156
v -0.702158 2.491502 -6.741917
v -0.838884 2.491502 -6.786343
v -5.071120 3.911017 -6.680045
v -5.155622 3.911017 -6.563740
v -5.292348 3.911017 -6.608166
v -5.292347 3.911017 -6.751926
v -5.155622 3.911017 -6.796352
v -5.071120 2.511334 -6.680045
v -5.155622 2.511334 -6.796352
v -5.292348 2.511334 -6.751926
v -5.292348 2.511334 -6.608166
v -5.155622 2.511334 -6.563740
v -5.076616 3.891185 -4.670042
v -5.161118 3.891185 -4.553737
v -5.297844 3.891185 -4.598163
v -5.297843 3.891185 -4.741923
v -5.161117 3.891185 -4.786349
v -5.076616 2.491502 -4.670042
v -5.161118 2.491502 -4.786349
v -5.297843 2.491502 -4.741923
v -5.297844 2.491502 -4.598163
v -5.161118 2.491502 -4.553737
vt 0.000000 0.000000
vt 0.027344 0.753906
vt 0.000000 0.000000
vt 0.171537 0.375336
vt 0.125000 0.375000
vt 0.130859 0.375000
vt 0.160156 0.375000
vt 0.148438 0.375000
vt 0.171875 0.375000
vt 0.085938 0.375000
vt 0.171537 0.375336
vt 0.130859 0.375000
vt 0.125000 0.375000
vt 0.171875 0.125139
vt 0.257812 0.250000
vt 0.000000 0.000000
vt 0.171875 0.125139
vt 0.000000 0.000000
vt 0.085938 0.375000
vt 0.160156 0.375000
vt 0.148438 0.375000
vt 0.171875 0.375000
vt 0.171875 0.375000
vt 0.000000 0.000000
vt 0.257812 0.375000
vt 0.171875 0.125000
vt 0.085938 0.125000
vt 0.000000 0.000000
vt 0.174101 0.478733
vt 0.125073 0.626252
vt 0.130923 0.563613
vt 0.085938 0.375000
vt 0.171875 0.125139
vt 0.257812 0.250000
vt 0.000000 0.000000
vt 0.171875 0.125139
vt 0.085938 0.375000
vt 0.000000 0.000000
vt 0.171875 0.375000
vt 0.000000 0.000000
vt 0.257812 0.375000
vt 0.171875 0.125000
vt 0.085938 0.125000
vt 0.174101 0.478733
vt 0.125073 0.626252
vt 0.130923 0.563613
vt 0.329691 0.123183
vt 0.152060 0.390300
vt 0.085938 0.373079
vt 0.331163 0.374025
vt 0.329691 0.123183
vt 0.152060 0.390300
vt 0.085938 0.373079
vt 0.331163 0.374025
vt -0.000170 0.433853
vt 0.000000 0.375000
vt 0.000000 0.000000
vt 0.173076 0.437374
vt -0.000170 0.433853
vt 0.000000 0.375000
vt 0.000000 0.000000
vt 0.173076 0.437374
vt 0.085938 0.373079
vt 0.331163 0.374025
vt 0.148474 0.375695
vt 0.085938 0.373079
vt 0.331163 0.374025
vt 0.148474 0.375695
vt 0.136719 0.375000
vt 0.136773 0.500974
vt 0.125073 0.626252
vt 0.566406 0.878906
vt 0.136719 0.375000
vt 0.136773 0.500974
vt 0.125073 0.626252
vt 0.687500 0.878906
vt 0.172988 0.301866
vt 0.130019 0.301866
vt 0.042827 0.424044
vt 0.172988 0.301866
vt 0.130019 0.301866
vt 0.042827 0.424044
vt 0.123634 0.046194
vt 0.165582 0.187012
vt 0.123634 0.046194
vt 0.165582 0.187012
vt 0.082791 0.093506
vt 0.082423 0.030796
vt 0.082791 0.093506
vt 0.271793 0.186813
vt 0.329691 0.123183
vt 0.085938 0.375000
vt 0.085938 0.373079
vt 0.085938 0.125000
vt 0.125000 0.375000
vt 0.125073 0.626252
vt 0.125073 0.626252
vt 0.746094 0.878906
vt 0.503906 0.878906
vt 0.082423 0.030796
vt 0.329691 0.123183
vt 0.271793 0.186813
vt 0.000000 0.000000
vt 0.085938 0.373079
vt 0.085938 0.125000
vt 0.171875 0.183157
vt 0.085938 0.375000
vt 0.000000 0.000000
vt 0.160174 0.250417
vt 0.330062 0.186384
vt 0.021271 0.448566
vt 0.248373 0.280519
vt 0.247268 0.092387
vt 0.173076 0.437374
vt 0.174101 0.478733
vt 0.171537 0.375336
vt 0.173076 0.437374
vt 0.152060 0.390300
vt 0.174101 0.478733
vt 0.171537 0.375336
vt 0.160174 0.250417
vt 0.000000 0.000000
vt 0.000000 0.000000
vt 0.085938 0.375000
vt 0.000000 0.000000
vt 0.085938 0.125000
vt 0.330062 0.186384
vt 0.085938 0.373079
vt 0.331163 0.374025
vt 0.000000 0.000000
vt 0.160724 0.060052
vt 0.165582 0.187012
vt 0.082791 0.093506
vt 0.082423 0.030796
vt 0.085938 0.373079
vt 0.000000 0.000000
vt 0.247268 0.092387
vt 0.248373 0.280519
vt 0.247268 0.092387
vt 0.000000 0.000000
vt 0.160724 0.060052
vt 0.173076 0.437374
vt 0.177684 0.066389
vt 0.174101 0.478733
vt 0.000000 0.000000
vt 0.628906 0.878906
vt 0.085938 0.373079
vt 0.628906 0.753906
vt 0.000000 0.000000
vt 0.628906 0.996094
vt 0.257812 0.250000
vt 0.339844 0.371094
vt 0.000000 0.000000
vt 0.000000 0.000000
vt 0.000000 0.000000
vt 0.178328 0.308105
vt 0.000000 0.000000
vt 0.000000 0.000000
vt 0.000000 0.000000
vt 0.129879 0.328643
vt 0.148474 0.375695
vt 0.147690 0.230900
vt 0.136026 0.508977
vt 0.136773 0.500974
vt 0.115450 0.422869
vt 0.000000 0.000000
vt 0.628906 0.878906
vt 0.000000 0.000000
vt 0.000000 0.000000
vt 0.746094 0.753906
vt 0.628906 0.753906
vt 0.171875 0.183157
vt 0.085938 0.375000
vt 0.000000 0.000000
vt 0.160174 0.250417
vt 0.330062 0.186384
vt 0.021271 0.448566
vt 0.248373 0.280519
vt 0.247268 0.092387
vt 0.173076 0.437374
vt 0.174101 0.478733
vt 0.171537 0.375336
vt 0.173076 0.437374
vt 0.152060 0.390300
vt 0.174101 0.478733
vt 0.171537 0.375336
vt 0.160174 0.250417
vt 0.000000 0.000000
vt 0.000000 0.000000
vt 0.085938 0.375000
vt 0.000000 0.000000
vt 0.085938 0.125000
vt 0.330062 0.186384
vt 0.085938 0.373079
vt 0.331163 0.374025
vt 0.000000 0.000000
vt 0.160724 0.060052
vt 0.165582 0.187012
vt 0.082791 0.093506
vt 0.082423 0.030796
vt 0.247268 0.092387
vt 0.000000 0.000000
vt 0.248373 0.280519
vt 0.247268 0.092387
vt 0.160724 0.060052
vt 0.000000 0.000000
vt 0.173076 0.437374
vt 0.177684 0.066389
vt 0.174101 0.478733
vt 0.000000 0.000000
vt 0.628906 0.878906
vt 0.628906 0.753906
vt 0.628906 0.996094
vt 0.000000 0.000000
vt 0.257812 0.250000
vt 0.339844 0.371094
vt 0.000000 0.000000
vt 0.000000 0.000000
vt 0.000000 0.000000
vt 0.178328 0.308105
vt 0.129879 0.328643
vt 0.148474 0.375695
vt 0.147690 0.230900
vt 0.136026 0.508977
vt 0.136773 0.500974
vt 0.115450 0.422869
vt 0.000000 0.000000
vt 0.628906 0.878906
vt 0.000000 0.000000
vt 0.000000 0.000000
vt 0.628906 0.753906
vt 0.082791 0.093506
vt 0.160156 0.375000
vt 0.171875 0.375000
vt 0.171875 0.375000
vt 0.000000 0.000000
vt 0.257812 0.375000
vt 0.148438 0.375000
vt 0.000000 0.000000
vt 0.136719 0.375000
vt 0.000000 0.000000
vt 0.628906 0.753906
vt 0.000000 0.000000
vt 0.165582 0.187012
vt 0.257812 0.250000
vt 0.000000 0.000000
vt 0.165364 0.371094
vt 0.339844 0.003906
vt 0.000000 0.000000
vt 0.248373 0.280519
vt 0.085938 0.373079
vt 0.331163 0.374025
vt 0.082791 0.093506
vt 0.165582 0.187012
vt 0.248373 0.280519
vt 0.130549 0.567614
vt 0.000000 0.000000
vt 0.000000 0.000000
vt 0.082791 0.093506
vt 0.000000 0.000000
vt 0.000000 0.000000
vt 0.000000 0.000000
vt 0.000000 0.000000
vt 0.000000 0.000000
vt 0.000000 0.375000
vt 0.000000 0.000000
vt 0.000000 0.000000
vt 0.171537 0.375336
vt -0.000284 0.473088
vt -0.000170 0.433853
vt 0.158113 0.318987
vt 0.000000 0.000000
vt 0.000000 0.000000
vt 0.171537 0.375336
vt 0.171537 0.375336
vt 0.160156 0.375000
vt 0.171875 0.375000
vt 0.171875 0.375000
vt 0.000000 0.000000
vt 0.257812 0.375000
vt 0.148438 0.375000
vt 0.000000 0.000000
vt 0.136719 0.375000
vt 0.000000 0.000000
vt 0.628906 0.753906
vt 0.000000 0.000000
vt 0.165582 0.187012
vt 0.257812 0.250000
vt 0.000000 0.000000
vt 0.165364 0.371094
vt 0.339844 0.003906
vt 0.000000 0.000000
vt 0.248373 0.280519
vt 0.085938 0.373079
vt 0.331163 0.374025
vt 0.085938 0.375000
vt 0.000000 0.000000
vt 0.082791 0.093506
vt 0.165582 0.187012
vt 0.248373 0.280519
vt 0.130549 0.567614
vt 0.000000 0.000000
vt 0.000000 0.000000
vt 0.000000 0.000000
vt 0.000000 0.000000
vt 0.000000 0.000000
vt 0.000000 0.000000
vt 0.000000 0.000000
vt 0.000000 0.000000
vt 0.027344 0.753906
vt 0.241295 0.611725
vt 0.003906 0.753906
vt 0.000000 0.000000
vt -0.000170 0.433853
vt 0.000000 0.000000
vt 0.000000 0.000000
vt -0.000284 0.473088
vt -0.000284 0.473088
vt 0.000000 0.000000
vt 0.000000 0.000000
vt 0.000000 0.000000
vt 0.000000 0.000000
vt 0.000000 0.000000
vt 0.000000 0.375000
vt 0.000000 0.000000
vt 0.000000 0.000000
vt 0.000000 0.000000
vt 0.171537 0.375336
vt 0.000000 0.000000
vt 0.000000 0.000000
vt 0.000000 0.000000
vt 0.158113 0.318987
vt 0.000000 0.000000
vt 0.000000 0.000000
vt 0.171537 0.375336
vt 0.171537 0.375336
vt 0.000000 0.000000
vt 0.000000 0.000000
vt 0.000000 0.000000
vt 0.000000 0.000000
vt 0.000000 0.000000
vt 0.241295 0.611725
vt 0.027344 0.753906
vt 0.000000 0.000000
vt 0.000000 0.000000
vt -0.000284 0.473088
vt 0.000000 0.000000
vt 0.000000 0.000000
vt 0.000000 0.000000
vt 0.000000 0.000000
vt 0.253906 0.371094
vt 0.246094 0.003906
vt 0.316406 0.371094
vt 0.003906 0.003906
vt 0.094727 0.371094
vt 0.511719 0.003906
vt 0.339844 0.003906
vt 0.511719 0.003906
vt 0.339844 0.003906
vt 0.003906 0.371094
vt 0.253906 0.371094
vt 0.246094 0.371094
vt 0.316406 0.371094
vt 0.215820 0.371094
vt -0.016452 0.371209
vt 0.339844 0.003906
vt 0.339844 0.371094
vt -0.087667 0.363807
vt 0.000000 0.000000
vt 0.511719 0.371094
vt 0.003906 0.353281
vt 0.339844 0.371094
vt 0.339844 0.003906
vt 0.019531 0.003906
vt 0.128906 0.371094
vt 0.003906 0.371094
vt 0.246094 0.371094
vt 0.165364 0.371094
vt 0.339844 0.003906
vt 0.253906 0.371094
vt 0.316406 0.371094
vt 0.003906 0.371094
vt 0.246094 0.371094
vt 0.215820 0.371094
vt -0.016452 0.371209
vt 0.339844 0.003906
vt 0.339844 0.371094
vt 0.094727 0.353281
vt -0.087667 0.363807
vt 0.000000 0.000000
vt 0.339844 0.371094
vt 0.511719 0.371094
vt 0.000000 0.000000
vt 0.339844 0.371094
vt 0.339844 0.003906
vt 0.019531 0.003906
vt 0.128906 0.371094
vt 0.246094 0.371094
vt 0.165364 0.371094
vt 0.339844 0.003906
vt 0.003906 0.371094
vt 0.339844 0.371094
vt 0.246094 0.352539
vt 0.000000 0.000000
vt 0.019531 0.371094
vt 0.128906 0.003906
vt 0.160156 0.003906
vt 0.500000 0.007812
vt 0.308594 0.003906
vt 0.421987 0.371094
vt 0.058594 0.931563
vt 0.441406 0.003906
vt 0.058594 0.941406
vt 0.027344 0.753906
vt 0.563453 0.239560
vt 0.000000 0.000000
vt 0.441406 0.371094
vt 0.422127 0.013790
vt 0.035156 0.972656
vt 0.089844 0.371094
vt 0.308594 0.371094
vt 0.257812 0.375000
vt 0.058594 0.996094
vt 0.347656 0.003906
vt 0.003906 0.003906
vt 0.246094 0.003906
vt 0.253906 0.003906
vt 0.316406 0.003906
vt 0.128906 0.003906
vt 0.246094 0.352539
vt 0.000000 0.000000
vt 0.019531 0.371094
vt 0.308594 0.003906
vt 0.500000 0.007812
vt 0.160156 0.003906
vt 0.441406 0.003906
vt 0.058594 0.931563
vt 0.421987 0.371094
vt 0.058594 0.941406
vt 0.003906 0.777344
vt -0.591026 0.371819
vt 0.027344 0.996094
vt 0.113281 0.753906
vt 0.058594 0.753906
vt 0.246094 0.207031
vt 0.003906 0.207031
vt 0.746094 0.878906
vt 0.628906 0.996094
vt 0.246094 0.207031
vt 0.003906 0.207031
vt 0.746094 0.996094
vt 0.746094 0.753906
vt 0.746094 0.878906
vt 0.027344 0.785156
vt 0.027344 0.808594
vt 0.376959 0.542906
vt 0.307859 0.565022
vt 0.439369 0.428933
vt 0.241295 0.569031
vt 0.035156 0.996094
vt 0.449219 0.417969
vt 0.421047 0.491149
vt 0.003906 0.753906
vt 0.489551 0.371450
vt 0.480469 0.417969
vt 0.003906 0.753906
vt 0.003906 0.996094
vt 0.480469 0.378906
vt 0.027344 0.753906
vt 0.058594 0.996094
vt 0.320858 0.608650
vt 0.270308 0.610488
vt 0.003906 0.785156
vt 0.003906 0.808594
vt 0.459954 0.510545
vt 0.003906 0.910156
vt 0.027344 0.777344
vt 0.000000 0.000000
vt -0.599184 0.339805
vt 0.058594 0.972656
vt 0.027344 0.910156
vt 0.347656 0.371094
vt 0.027344 0.878906
vt 0.027344 0.863281
vt 0.027344 0.753906
vt 0.563453 0.239560
vt 0.000000 0.000000
vt 0.422127 0.013790
vt 0.441406 0.371094
vt 0.035156 0.972656
vt 0.401958 0.575332
vt 0.003906 0.863281
vt 0.308594 0.371094
vt 0.257812 0.375000
vt 0.089844 0.371094
vt 0.058594 0.996094
vt 0.347656 0.003906
vt 0.246094 0.003906
vt 0.003906 0.003906
vt 0.253906 0.003906
vt 0.316406 0.003906
vt 0.000000 0.000000
vt 0.246094 0.339844
vt 0.246094 0.371094
vt 0.003906 0.207031
vt 0.000000 0.000000
vt 0.503906 0.996094
vt 0.628906 0.996094
vt 0.746094 0.996094
vt 0.000000 0.000000
vt 0.128906 0.003906
vt -0.591026 0.371819
vt 0.003906 0.777344
vt 0.027344 0.996094
vt 0.027344 0.957031
vt 0.479490 0.438705
vt 0.003906 0.957031
vt 0.058594 0.753906
vt 0.113281 0.753906
vt 0.246094 0.207031
vt 0.003906 0.207031
vt 0.503906 0.753906
vt 0.503906 0.996094
vt 0.628906 0.996094
vt 0.246094 0.207031
vt 0.003906 0.207031
vt 0.503906 0.753906
vt 0.503906 0.996094
vt 0.503906 0.878906
vt 0.500000 0.375000
vt 0.089844 0.003906
vt 0.308594 0.371094
vt 0.246094 0.371094
vt 0.253906 0.003906
vt 0.316406 0.003906
vt 0.058594 0.847656
vt 0.003906 0.187500
vt 0.246094 0.187500
vt 0.003906 0.187500
vt 0.246094 0.187500
vt 0.160156 0.187500
vt 0.304688 0.007812
vt 0.445312 0.007812
vt 0.339844 0.371094
vt 0.402344 0.371094
vt 0.402344 0.371094
vt 0.339844 0.371094
vt 0.402344 0.371094
vt 0.339844 0.371094
vt 0.339844 0.371094
vt 0.402344 0.371094
vt 0.402344 0.371094
vt 0.339844 0.371094
vt 0.339844 0.003906
vt 0.402344 0.003906
vt 0.402344 0.003906
vt 0.339844 0.003906
vt 0.339844 0.003906
vt 0.402344 0.003906
vt 0.027344 0.808594
vt 0.027344 0.785156
vt 0.003906 0.753906
vt 0.307859 0.565022
vt 0.449219 0.417969
vt 0.421047 0.491149
vt 0.439369 0.428933
vt 0.241295 0.569031
vt 0.376959 0.542906
vt 0.035156 0.996094
vt 0.480469 0.417969
vt 0.003906 0.753906
vt 0.489551 0.371450
vt 0.003906 0.996094
vt 0.480469 0.378906
vt 0.058594 0.996094
vt 0.027344 0.753906
vt 0.320858 0.608650
vt 0.270308 0.610488
vt 0.003906 0.808594
vt 0.003906 0.785156
vt 0.459954 0.510545
vt 0.003906 0.910156
vt 0.058594 0.972656
vt 0.000000 0.000000
vt -0.599184 0.339805
vt 0.027344 0.777344
vt 0.027344 0.910156
vt 0.027344 0.878906
vt 0.347656 0.371094
vt 0.339844 0.003906
vt 0.402344 0.003906
vt 0.339844 0.003906
vt 0.402344 0.003906
vt 0.339844 0.371094
vt 0.402344 0.371094
vt 0.402344 0.371094
vt 0.339844 0.371094
vt 0.027344 0.863281
vt 0.027344 0.957031
vt 0.401958 0.575332
vt 0.003906 0.863281
vt 0.027344 0.910156
vt 0.339844 0.371094
vt 0.402344 0.371094
vt 0.402344 0.371094
vt 0.339844 0.371094
vt 0.402344 0.371094
vt 0.339844 0.371094
vt 0.339844 0.003906
vt 0.402344 0.003906
vt 0.027344 0.957031
vt 0.479490 0.438705
vt 0.003906 0.957031
vt 0.027344 0.863281
vt 0.027344 0.785156
vt 0.500000 0.375000
vt 0.308594 0.371094
vt 0.089844 0.003906
vt 0.253906 0.003906
vt 0.246094 0.371094
vt 0.316406 0.003906
vt 0.058594 0.847656
vt 0.128906 0.187500
vt 0.246094 0.187500
vt 0.003906 0.187500
vt 0.246094 0.187500
vt 0.003906 0.187500
vt 0.304688 0.007812
vt 0.445312 0.007812
vt 0.160156 0.187500
vt 0.339844 0.371094
vt 0.402344 0.371094
vt 0.402344 0.371094
vt 0.339844 0.371094
vt 0.339844 0.371094
vt 0.402344 0.371094
vt 0.402344 0.371094
vt 0.339844 0.371094
vt 0.339844 0.371094
vt 0.402344 0.371094
vt 0.339844 0.003906
vt 0.402344 0.003906
vt 0.339844 0.003906
vt 0.402344 0.003906
vt 0.339844 0.003906
vt 0.402344 0.003906
vt 0.339844 0.003906
vt 0.402344 0.003906
vt 0.339844 0.003906
vt 0.402344 0.003906
vt 0.339844 0.371094
vt 0.402344 0.371094
vt 0.339844 0.371094
vt 0.402344 0.371094
vt 0.339844 0.371094
vt 0.402344 0.371094
vt 0.402344 0.371094
vt 0.339844 0.371094
vt 0.339844 0.371094
vt 0.402344 0.371094
vt 0.339844 0.003906
vt 0.402344 0.003906
vt 0.339844 0.003906
vt 0.402344 0.003906
vt 0.339844 0.003906
vt 0.402344 0.003906
vt 0.339844 0.003906
vt 0.402344 0.003906
vt 0.402344 0.003906
vt 0.339844 0.003906
vt 0.000000 0.375000
vt 0.000000 0.539062
vt 0.000000 0.554688
vt 0.000000 0.375000
vt 0.000000 0.554688
vt 0.000000 0.562500
vt 0.042969 0.996094
vt 0.042969 0.753906
vt 0.003906 0.753906
vt 0.042969 0.753906
vt 0.113281 0.996094
vt 0.113281 0.753906
vt 0.003906 0.847656
vt 0.003906 0.931563
vt 0.003906 0.941406
vt 0.308594 0.003906
vt 0.257812 0.007812
vt 0.160156 0.371094
vt 0.003906 0.996094
vt 0.445312 0.375000
vt 0.089844 0.187500
vt 0.304688 0.375000
vt 0.253906 0.371094
vt 0.316406 0.371094
vt 0.246094 0.003906
vt 0.003906 0.003906
vt 0.094727 0.371094
vt 0.113281 0.996094
vt 0.042969 0.996094
vt 0.064453 0.093750
vt 0.125000 0.554688
vt 0.125000 0.562500
vt 0.125000 0.375000
vt 0.125000 0.375000
vt 0.125000 0.554688
vt 0.125000 0.539062
vt 0.339844 0.003906
vt 0.402344 0.003906
vt 0.339844 0.003906
vt 0.402344 0.003906
vt 0.339844 0.003906
vt 0.402344 0.003906
vt 0.402344 0.003906
vt 0.339844 0.003906
vt 0.000000 0.375000
vt 0.000000 0.539062
vt 0.000000 0.554688
vt 0.000000 0.375000
vt 0.000000 0.554688
vt 0.000000 0.562500
vt 0.042969 0.753906
vt 0.042969 0.996094
vt 0.003906 0.753906
vt 0.042969 0.753906
vt 0.113281 0.996094
vt 0.113281 0.753906
vt 0.003906 0.847656
vt 0.003906 0.941406
vt 0.003906 0.931563
vt 0.308594 0.003906
vt 0.160156 0.371094
vt 0.257812 0.007812
vt 0.003906 0.996094
vt 0.445312 0.375000
vt 0.304688 0.375000
vt 0.089844 0.187500
vt 0.503906 0.753906
vt 0.746094 0.753906
vt 0.503906 0.996094
vt 0.496094 0.746094
vt 0.246094 0.628906
vt 0.746094 0.996094
vt 0.503906 0.753906
vt 0.253906 0.746094
vt 0.746094 0.753906
vt 0.371094 0.746094
vt 0.503906 0.753906
vt 0.746094 0.753906
vt 0.003906 0.628906
vt 0.503906 0.996094
vt 0.746094 0.996094
vt 0.503906 0.753906
vt 0.746094 0.753906
vt 0.503906 0.996094
vt 0.746094 0.996094
vt 0.503906 0.753906
vt 0.503906 0.878906
vt 0.000000 0.000000
vt 0.746094 0.753906
vt 0.503906 0.996094
vt 0.746094 0.996094
vt 0.503906 0.753906
vt 0.503906 0.753906
vt 0.746094 0.753906
vt 0.746094 0.996094
vt 0.503906 0.996094
vt 0.746094 0.753906
vt 0.503906 0.753906
vt 0.746094 0.753906
vt 0.503906 0.996094
vt 0.746094 0.996094
vt 0.503906 0.753906
vt 0.746094 0.753906
vt 0.503906 0.753906
vt 0.503906 0.996094
vt 0.746094 0.996094
vt 0.746094 0.753906
vt 0.000000 0.000000
vt 0.746094 0.878906
vt 0.503906 0.878906
vt 0.246094 0.746094
vt 0.746094 0.878906
vt 0.503906 0.878906
vt 0.628906 0.753906
vt 0.378906 0.746094
vt 0.628906 0.996094
vt 0.628906 0.753906
vt 0.503906 0.878906
vt 0.746094 0.878906
vt 0.003906 0.746094
vt 0.628906 0.753906
vt 0.628906 0.996094
vt 0.746094 0.878906
vt 0.503906 0.878906
vt 0.149518 0.328760
vt 0.000000 0.000000
vt 0.746094 0.878906
vt 0.503906 0.878906
vt 0.503906 0.878906
vt 0.746094 0.878906
vt 0.154912 0.324837
vt 0.000000 0.000000
vt 0.628906 0.996094
vt 0.628906 0.753906
vt 0.503906 0.878906
vt 0.746094 0.878906
vt 0.746094 0.878906
vt 0.503906 0.878906
vt 0.628906 0.996094
vt 0.628906 0.753906
vt 0.746094 0.878906
vt 0.503906 0.878906
vt 0.253906 0.628906
vt 0.746094 0.878906
vt 0.496094 0.628906
vt 0.503906 0.878906
vt 0.628906 0.996094
vt 0.628906 0.753906
vt 0.628906 0.996094
vt 0.628906 0.753906
vt 0.253906 0.746094
vt 0.628906 0.753906
vt 0.496094 0.746094
vt 0.628906 0.996094
vt 0.128906 0.628906
vt 0.628906 0.996094
vt 0.746094 0.878906
vt 0.503906 0.878906
vt 0.371094 0.628906
vt 0.628906 0.753906
vt 0.628906 0.996094
vt 0.628906 0.878906
vt 0.628906 0.878906
vt 0.496094 0.628906
vt 0.628906 0.878906
vt 0.628906 0.878906
vt 0.253906 0.628906
vt 0.628906 0.878906
vt 0.128906 0.746094
vt 0.628906 0.878906
vt 0.628906 0.878906
vt 0.628906 0.878906
vt 0.628906 0.878906
vt 0.628906 0.878906
vt 0.628906 0.878906
vt 0.628906 0.878906
vt 0.378906 0.628906
vt 0.339844 0.371094
vt 0.402344 0.371094
vt 0.339844 0.371094
vt 0.402344 0.371094
vt 0.339844 0.371094
vt 0.402344 0.371094
vt 0.339844 0.371094
vt 0.402344 0.371094
vt 0.339844 0.371094
vt 0.402344 0.371094
vt 0.339844 0.003906
vt 0.402344 0.003906
vt 0.402344 0.003906
vt 0.339844 0.003906
vt 0.339844 0.003906
vt 0.402344 0.003906
vt 0.339844 0.003906
vt 0.402344 0.003906
vt 0.339844 0.003906
vt 0.402344 0.003906
vt 0.339844 0.371094
vt 0.402344 0.371094
vt 0.339844 0.371094
vt 0.402344 0.371094
vt 0.339844 0.371094
vt 0.402344 0.371094
vt 0.339844 0.371094
vt 0.402344 0.371094
vt 0.402344 0.371094
vt 0.339844 0.371094
vt 0.402344 0.003906
vt 0.339844 0.003906
vt 0.402344 0.003906
vt 0.339844 0.003906
vt 0.339844 0.003906
vt 0.402344 0.003906
vt 0.402344 0.003906
vt 0.339844 0.003906
vt 0.339844 0.003906
vt 0.402344 0.003906
vt 0.339844 0.371094
vt 0.402344 0.371094
vt 0.339844 0.371094
vt 0.402344 0.371094
vt 0.339844 0.371094
vt 0.402344 0.371094
vt 0.339844 0.371094
vt 0.402344 0.371094
vt 0.339844 0.371094
vt 0.402344 0.371094
vt 0.339844 0.003906
vt 0.402344 0.003906
vt 0.402344 0.003906
vt 0.339844 0.003906
vt 0.339844 0.003906
vt 0.402344 0.003906
vt 0.339844 0.003906
vt 0.402344 0.003906
vt 0.402344 0.003906
vt 0.339844 0.003906
vt 0.339844 0.371094
vt 0.402344 0.371094
vt 0.339844 0.371094
vt 0.402344 0.371094
vt 0.339844 0.371094
vt 0.402344 0.371094
vt 0.339844 0.371094
vt 0.402344 0.371094
vt 0.339844 0.371094
vt 0.402344 0.371094
vt 0.402344 0.003906
vt 0.339844 0.003906
vt 0.339844 0.003906
vt 0.402344 0.003906
vt 0.402344 0.003906
vt 0.339844 0.003906
vt 0.339844 0.003906
vt 0.402344 0.003906
vt 0.339844 0.003906
vt 0.402344 0.003906
vt 0.339844 0.371094
vt 0.402344 0.371094
vt 0.339844 0.371094
vt 0.402344 0.371094
vt 0.339844 0.371094
vt 0.402344 0.371094
vt 0.339844 0.371094
vt 0.402344 0.371094
vt 0.339844 0.371094
vt 0.402344 0.371094
vt 0.402344 0.003906
vt 0.339844 0.003906
vt 0.339844 0.003906
vt 0.402344 0.003906
vt 0.339844 0.003906
vt 0.402344 0.003906
vt 0.339844 0.003906
vt 0.402344 0.003906
vt 0.339844 0.003906
vt 0.402344 0.003906
vt 0.339844 0.371094
vt 0.402344 0.371094
vt 0.402344 0.371094
vt 0.339844 0.371094
vt 0.339844 0.371094
vt 0.402344 0.371094
vt 0.339844 0.371094
vt 0.402344 0.371094
vt 0.339844 0.371094
vt 0.402344 0.371094
vt 0.402344 0.003906
vt 0.339844 0.003906
vt 0.339844 0.003906
vt 0.402344 0.003906
vt 0.339844 0.003906
vt 0.402344 0.003906
vt 0.339844 0.003906
vt 0.402344 0.003906
vt 0.339844 0.003906
vt 0.402344 0.003906
vt 0.339844 0.371094
vt 0.402344 0.371094
vt 0.402344 0.371094
vt 0.339844 0.371094
vt 0.339844 0.371094
vt 0.402344 0.371094
vt 0.339844 0.371094
vt 0.402344 0.371094
vt 0.339844 0.371094
vt 0.402344 0.371094
vt 0.339844 0.003906
vt 0.402344 0.003906
vt 0.402344 0.003906
vt 0.339844 0.003906
vt 0.339844 0.003906
vt 0.402344 0.003906
vt 0.402344 0.003906
vt 0.339844 0.003906
vt 0.402344 0.003906
vt 0.339844 0.003906
vt 0.339844 0.371094
vt 0.402344 0.371094
vt 0.339844 0.371094
vt 0.402344 0.371094
vt 0.402344 0.371094
vt 0.339844 0.371094
vt 0.339844 0.371094
vt 0.402344 0.371094
vt 0.339844 0.371094
vt 0.402344 0.371094
vt 0.339844 0.003906
vt 0.402344 0.003906
vt 0.339844 0.003906
vt 0.402344 0.003906
vt 0.339844 0.003906
vt 0.402344 0.003906
vt 0.402344 0.003906
vt 0.339844 0.003906
vt 0.402344 0.003906
vt 0.339844 0.003906
vt 0.339844 0.371094
vt 0.402344 0.371094
vt 0.339844 0.371094
vt 0.402344 0.371094
vt 0.339844 0.371094
vt 0.402344 0.371094
vt 0.339844 0.371094
vt 0.402344 0.371094
vt 0.339844 0.371094
vt 0.402344 0.371094
vt 0.402344 0.003906
vt 0.339844 0.003906
vt 0.339844 0.003906
vt 0.402344 0.003906
vt 0.339844 0.003906
vt 0.402344 0.003906
vt 0.339844 0.003906
vt 0.402344 0.003906
vt 0.402344 0.003906
vt 0.339844 0.003906
vt 0.339844 0.371094
vt 0.402344 0.371094
vt 0.339844 0.371094
vt 0.402344 0.371094
vt 0.339844 0.371094
vt 0.402344 0.371094
vt 0.339844 0.371094
vt 0.402344 0.371094
vt 0.339844 0.371094
vt 0.402344 0.371094
vt 0.402344 0.003906
vt 0.339844 0.003906
vt 0.339844 0.003906
vt 0.402344 0.003906
vt 0.339844 0.003906
vt 0.402344 0.003906
vt 0.339844 0.003906
vt 0.402344 0.003906
vt 0.402344 0.003906
vt 0.339844 0.003906
vt 0.339844 0.371094
vt 0.402344 0.371094
vt 0.402344 0.371094
vt 0.339844 0.371094
vt 0.339844 0.371094
vt 0.402344 0.371094
vt 0.402344 0.371094
vt 0.339844 0.371094
vt 0.339844 0.371094
vt 0.402344 0.371094
vt 0.402344 0.003906
vt 0.339844 0.003906
vt 0.339844 0.003906
vt 0.402344 0.003906
vt 0.339844 0.003906
vt 0.402344 0.003906
vt 0.339844 0.003906
vt 0.402344 0.003906
vt 0.402344 0.003906
vt 0.339844 0.003906
vt 0.339844 0.371094
vt 0.402344 0.371094
vt 0.339844 0.371094
vt 0.402344 0.371094
vt 0.339844 0.371094
vt 0.402344 0.371094
vt 0.339844 0.371094
vt 0.402344 0.371094
vt 0.339844 0.371094
vt 0.402344 0.371094
vt 0.402344 0.003906
vt 0.339844 0.003906
vt 0.339844 0.003906
vt 0.402344 0.003906
vt 0.339844 0.003906
vt 0.402344 0.003906
vt 0.339844 0.003906
vt 0.402344 0.003906
vt 0.402344 0.003906
vt 0.339844 0.003906
vt 0.000000 0.000000
vt 0.000000 0.000000
vt 0.000000 0.000000
vt 0.000000 0.000000
vt 0.000000 0.000000
vt 0.000000 0.000000
vt 0.000000 0.000000
vt 0.000000 0.000000
vt 0.000000 0.000000
vt 0.000000 0.000000
vt 0.000000 0.000000
vt 0.000000 0.000000
vt 0.000000 0.000000
vt 0.000000 0.000000
vt 0.000000 0.000000
vt 0.000000 0.000000
vt 0.402344 0.003906
vt 0.339844 0.003906
vt 0.339844 0.003906
vt 0.402344 0.003906
vt 0.339844 0.003906
vt 0.402344 0.003906
vt 0.339844 0.003906
vt 0.402344 0.003906
vt 0.339844 0.003906
vt 0.402344 0.003906
vt 0.339844 0.371094
vt 0.402344 0.371094
vt 0.402344 0.371094
vt 0.339844 0.371094
vt 0.339844 0.371094
vt 0.402344 0.371094
vt 0.339844 0.371094
vt 0.402344 0.371094
vt 0.339844 0.371094
vt 0.402344 0.371094
vt 0.339844 0.371094
vt 0.402344 0.371094
vt 0.402344 0.371094
vt 0.339844 0.371094
vt 0.339844 0.371094
vt 0.402344 0.371094
vt 0.402344 0.371094
vt 0.339844 0.371094
vt 0.339844 0.371094
vt 0.402344 0.371094
vt 0.339844 0.003906
vt 0.402344 0.003906
vt 0.339844 0.003906
vt 0.402344 0.003906
vt 0.339844 0.003906
vt 0.402344 0.003906
vt 0.339844 0.003906
vt 0.402344 0.003906
vt 0.339844 0.003906
vt 0.402344 0.003906
vt 0.339844 0.371094
vt 0.402344 0.371094
vt 0.402344 0.371094
vt 0.339844 0.371094
vt 0.339844 0.371094
vt 0.402344 0.371094
vt 0.402344 0.371094
vt 0.339844 0.371094
vt 0.339844 0.371094
vt 0.402344 0.371094
vt 0.339844 0.003906
vt 0.402344 0.003906
vt 0.339844 0.003906
vt 0.402344 0.003906
vt 0.339844 0.003906
vt 0.402344 0.003906
vt 0.339844 0.003906
vt 0.402344 0.003906
vt 0.339844 0.003906
vt 0.402344 0.003906
vt 0.339844 0.003906
vt 0.402344 0.003906
vt 0.339844 0.003906
vt 0.402344 0.003906
vt 0.339844 0.003906
vt 0.402344 0.003906
vt 0.339844 0.003906
vt 0.402344 0.003906
vt 0.339844 0.003906
vt 0.402344 0.003906
vt 0.402344 0.371094
vt 0.339844 0.371094
vt 0.339844 0.371094
vt 0.402344 0.371094
vt 0.402344 0.371094
vt 0.339844 0.371094
vt 0.339844 0.371094
vt 0.402344 0.371094
vt 0.402344 0.371094
vt 0.339844 0.371094
vt 0.339844 0.003906
vt 0.402344 0.003906
vt 0.339844 0.003906
vt 0.402344 0.003906
vt 0.339844 0.003906
vt 0.402344 0.003906
vt 0.339844 0.003906
vt 0.402344 0.003906
vt 0.339844 0.003906
vt 0.402344 0.003906
vt 0.402344 0.371094
vt 0.339844 0.371094
vt 0.339844 0.371094
vt 0.402344 0.371094
vt 0.339844 0.371094
vt 0.402344 0.371094
vt 0.402344 0.371094
vt 0.339844 0.371094
vt 0.402344 0.371094
vt 0.339844 0.371094
vt 0.339844 0.003906
vt 0.402344 0.003906
vt 0.339844 0.003906
vt 0.402344 0.003906
vt 0.339844 0.003906
vt 0.402344 0.003906
vt 0.339844 0.003906
vt 0.402344 0.003906
vt 0.339844 0.003906
vt 0.402344 0.003906
vt 0.339844 0.371094
vt 0.402344 0.371094
vt 0.402344 0.371094
vt 0.339844 0.371094
vt 0.339844 0.371094
vt 0.402344 0.371094
vt 0.402344 0.371094
vt 0.339844 0.371094
vt 0.339844 0.371094
vt 0.402344 0.371094
vt 0.339844 0.371094
vt 0.402344 0.371094
vt 0.339844 0.371094
vt 0.402344 0.371094
vt 0.339844 0.371094
vt 0.402344 0.371094
vt 0.402344 0.371094
vt 0.339844 0.371094
vt 0.339844 0.371094
vt 0.402344 0.371094
vt 0.339844 0.003906
vt 0.402344 0.003906
vt 0.339844 0.003906
vt 0.402344 0.003906
vt 0.339844 0.003906
vt 0.402344 0.003906
vt 0.339844 0.003906
vt 0.402344 0.003906
vt 0.402344 0.003906
vt 0.339844 0.003906
vt 0.339844 0.371094
vt 0.402344 0.371094
vt 0.402344 0.371094
vt 0.339844 0.371094
vt 0.339844 0.371094
vt 0.402344 0.371094
vt 0.402344 0.371094
vt 0.339844 0.371094
vt 0.339844 0.371094
vt 0.402344 0.371094
vt 0.339844 0.003906
vt 0.402344 0.003906
vt 0.339844 0.003906
vt 0.402344 0.003906
vt 0.339844 0.003906
vt 0.402344 0.003906
vt 0.339844 0.003906
vt 0.402344 0.003906
vt 0.339844 0.003906
vt 0.402344 0.003906
vt 0.339844 0.003906
vt 0.402344 0.003906
vt 0.339844 0.003906
vt 0.402344 0.003906
vt 0.339844 0.003906
vt 0.402344 0.003906
vt 0.339844 0.003906
vt 0.402344 0.003906
vt 0.339844 0.003906
vt 0.402344 0.003906
vt 0.402344 0.371094
vt 0.339844 0.371094
vt 0.339844 0.371094
vt 0.402344 0.371094
vt 0.402344 0.371094
vt 0.339844 0.371094
vt 0.339844 0.371094
vt 0.402344 0.371094
vt 0.402344 0.371094
vt 0.339844 0.371094
vt 0.339844 0.003906
vt 0.402344 0.003906
vt 0.339844 0.003906
vt 0.402344 0.003906
vt 0.339844 0.003906
vt 0.402344 0.003906
vt 0.339844 0.003906
vt 0.402344 0.003906
vt 0.339844 0.003906
vt 0.402344 0.003906
vt 0.402344 0.371094
vt 0.339844 0.371094
vt 0.339844 0.371094
vt 0.402344 0.371094
vt 0.339844 0.371094
vt 0.402344 0.371094
vt 0.402344 0.371094
vt 0.339844 0.371094
vt 0.402344 0.371094
vt 0.339844 0.371094
vt 0.339844 0.003906
vt 0.402344 0.003906
vt 0.339844 0.003906
vt 0.402344 0.003906
vt 0.339844 0.003906
vt 0.402344 0.003906
vt 0.339844 0.003906
vt 0.402344 0.003906
vt 0.339844 0.003906
vt 0.402344 0.003906
vt 0.339844 0.371094
vt 0.402344 0.371094
vt 0.402344 0.371094
vt 0.339844 0.371094
vt 0.339844 0.371094
vt 0.402344 0.371094
vt 0.402344 0.371094
vt 0.339844 0.371094
vt 0.339844 0.371094
vt 0.402344 0.371094
vt 0.339844 0.371094
vt 0.402344 0.371094
vt 0.402344 0.371094
vt 0.339844 0.371094
vt 0.339844 0.371094
vt 0.402344 0.371094
vt 0.402344 0.371094
vt 0.339844 0.371094
vt 0.339844 0.371094
vt 0.402344 0.371094
vt 0.339844 0.003906
vt 0.402344 0.003906
vt 0.339844 0.003906
vt 0.402344 0.003906
vt 0.339844 0.003906
vt 0.402344 0.003906
vt 0.339844 0.003906
vt 0.402344 0.003906
vt 0.339844 0.003906
vt 0.402344 0.003906
vt 0.339844 0.371094
vt 0.402344 0.371094
vt 0.402344 0.371094
vt 0.339844 0.371094
vt 0.339844 0.371094
vt 0.402344 0.371094
vt 0.402344 0.371094
vt 0.339844 0.371094
vt 0.339844 0.371094
vt 0.402344 0.371094
vt 0.339844 0.003906
vt 0.402344 0.003906
vt 0.339844 0.003906
vt 0.402344 0.003906
vt 0.339844 0.003906
vt 0.402344 0.003906
vt 0.339844 0.003906
vt 0.402344 0.003906
vt 0.339844 0.003906
vt 0.402344 0.003906
vt 0.339844 0.003906
vt 0.402344 0.003906
vt 0.339844 0.003906
vt 0.402344 0.003906
vt 0.339844 0.003906
vt 0.402344 0.003906
vt 0.339844 0.003906
vt 0.402344 0.003906
vt 0.339844 0.003906
vt 0.402344 0.003906
vt 0.402344 0.371094
vt 0.339844 0.371094
vt 0.339844 0.371094
vt 0.402344 0.371094
vt 0.402344 0.371094
vt 0.339844 0.371094
vt 0.339844 0.371094
vt 0.402344 0.371094
vt 0.402344 0.371094
vt 0.339844 0.371094
vt 0.339844 0.003906
vt 0.402344 0.003906
vt 0.339844 0.003906
vt 0.402344 0.003906
vt 0.339844 0.003906
vt 0.402344 0.003906
vt 0.339844 0.003906
vt 0.402344 0.003906
vt 0.339844 0.003906
vt 0.402344 0.003906
vt 0.402344 0.371094
vt 0.339844 0.371094
vt 0.339844 0.371094
vt 0.402344 0.371094
vt 0.339844 0.371094
vt 0.402344 0.371094
vt 0.402344 0.371094
vt 0.339844 0.371094
vt 0.402344 0.371094
vt 0.339844 0.371094
vt 0.339844 0.003906
vt 0.402344 0.003906
vt 0.339844 0.003906
vt 0.402344 0.003906
vt 0.339844 0.003906
vt 0.402344 0.003906
vt 0.339844 0.003906
vt 0.402344 0.003906
vt 0.339844 0.003906
vt 0.402344 0.003906
vt 0.339844 0.371094
vt 0.402344 0.371094
vt 0.402344 0.371094
vt 0.339844 0.371094
vt 0.339844 0.371094
vt 0.402344 0.371094
vt 0.402344 0.371094
vt 0.339844 0.371094
vt 0.339844 0.371094
vt 0.402344 0.371094
vt 0.339844 0.371094
vt 0.402344 0.371094
vt 0.402344 0.371094
vt 0.339844 0.371094
vt 0.339844 0.371094
vt 0.402344 0.371094
vt 0.402344 0.371094
vt 0.339844 0.371094
vt 0.339844 0.371094
vt 0.402344 0.371094
vt 0.339844 0.003906
vt 0.402344 0.003906
vt 0.339844 0.003906
vt 0.402344 0.003906
vt 0.339844 0.003906
vt 0.402344 0.003906
vt 0.339844 0.003906
vt 0.402344 0.003906
vt 0.339844 0.003906
vt 0.402344 0.003906
vt 0.339844 0.371094
vt 0.402344 0.371094
vt 0.402344 0.371094
vt 0.339844 0.371094
vt 0.339844 0.371094
vt 0.402344 0.371094
vt 0.402344 0.371094
vt 0.339844 0.371094
vt 0.339844 0.371094
vt 0.402344 0.371094
vt 0.339844 0.003906
vt 0.402344 0.003906
vt 0.339844 0.003906
vt 0.402344 0.003906
vt 0.339844 0.003906
vt 0.402344 0.003906
vt 0.339844 0.003906
vt 0.402344 0.003906
vt 0.339844 0.003906
vt 0.402344 0.003906
vt 0.339844 0.003906
vt 0.402344 0.003906
vt 0.339844 0.003906
vt 0.402344 0.003906
vt 0.339844 0.003906
vt 0.402344 0.003906
vt 0.339844 0.003906
vt 0.402344 0.003906
vt 0.339844 0.003906
vt 0.402344 0.003906
vt 0.402344 0.371094
vt 0.339844 0.371094
vt 0.339844 0.371094
vt 0.402344 0.371094
vt 0.402344 0.371094
vt 0.339844 0.371094
vt 0.339844 0.371094
vt 0.402344 0.371094
vt 0.402344 0.371094
vt 0.339844 0.371094
vt 0.339844 0.003906
vt 0.402344 0.003906
vt 0.339844 0.003906
vt 0.402344 0.003906
vt 0.339844 0.003906
vt 0.402344 0.003906
vt 0.339844 0.003906
vt 0.402344 0.003906
vt 0.402344 0.003906
vt 0.339844 0.003906
vt 0.402344 0.371094
vt 0.339844 0.371094
vt 0.339844 0.371094
vt 0.402344 0.371094
vt 0.339844 0.371094
vt 0.402344 0.371094
vt 0.402344 0.371094
vt 0.339844 0.371094
vt 0.339844 0.371094
vt 0.402344 0.371094
vt 0.339844 0.371094
vt 0.402344 0.371094
vt 0.402344 0.371094
vt 0.339844 0.371094
vt 0.339844 0.371094
vt 0.402344 0.371094
vt 0.402344 0.371094
vt 0.339844 0.371094
vt 0.339844 0.371094
vt 0.402344 0.371094
vt 0.339844 0.003906
vt 0.402344 0.003906
vt 0.339844 0.003906
vt 0.402344 0.003906
vt 0.339844 0.003906
vt 0.402344 0.003906
vt 0.339844 0.003906
vt 0.402344 0.003906
vt 0.339844 0.003906
vt 0.402344 0.003906
vt 0.339844 0.371094
vt 0.402344 0.371094
vt 0.339844 0.371094
vt 0.402344 0.371094
vt 0.339844 0.371094
vt 0.402344 0.371094
vt 0.402344 0.371094
vt 0.339844 0.371094
vt 0.339844 0.371094
vt 0.402344 0.371094
vt 0.339844 0.003906
vt 0.402344 0.003906
vt 0.339844 0.003906
vt 0.402344 0.003906
vt 0.339844 0.003906
vt 0.402344 0.003906
vt 0.339844 0.003906
vt 0.402344 0.003906
vt 0.402344 0.003906
vt 0.339844 0.003906
vt 0.339844 0.371094
vt 0.402344 0.371094
vt 0.402344 0.371094
vt 0.339844 0.371094
vt 0.339844 0.371094
vt 0.402344 0.371094
vt 0.339844 0.371094
vt 0.402344 0.371094
vt 0.339844 0.371094
vt 0.402344 0.371094
vt 0.339844 0.003906
vt 0.402344 0.003906
vt 0.339844 0.003906
vt 0.402344 0.003906
vt 0.402344 0.003906
vt 0.339844 0.003906
vt 0.339844 0.003906
vt 0.402344 0.003906
vt 0.339844 0.003906
vt 0.402344 0.003906
vt 0.339844 0.371094
vt 0.402344 0.371094
vt 0.402344 0.371094
vt 0.339844 0.371094
vt 0.339844 0.371094
vt 0.402344 0.371094
vt 0.402344 0.371094
vt 0.339844 0.371094
vt 0.339844 0.371094
vt 0.402344 0.371094
vt 0.339844 0.003906
vt 0.402344 0.003906
vt 0.339844 0.003906
vt 0.402344 0.003906
vt 0.339844 0.003906
vt 0.402344 0.003906
vt 0.339844 0.003906
vt 0.402344 0.003906
vt 0.339844 0.003906
vt 0.402344 0.003906
vt 0.339844 0.371094
vt 0.402344 0.371094
vt 0.402344 0.371094
vt 0.339844 0.371094
vt 0.339844 0.371094
vt 0.402344 0.371094
vt 0.402344 0.371094
vt 0.339844 0.371094
vt 0.339844 0.371094
vt 0.402344 0.371094
vt 0.339844 0.003906
vt 0.402344 0.003906
vt 0.339844 0.003906
vt 0.402344 0.003906
vt 0.339844 0.003906
vt 0.402344 0.003906
vt 0.339844 0.003906
vt 0.402344 0.003906
vt 0.339844 0.003906
vt 0.402344 0.003906
vt 0.339844 0.371094
vt 0.402344 0.371094
vt 0.402344 0.371094
vt 0.339844 0.371094
vt 0.339844 0.371094
vt 0.402344 0.371094
vt 0.402344 0.371094
vt 0.339844 0.371094
vt 0.339844 0.371094
vt 0.402344 0.371094
vt 0.339844 0.003906
vt 0.402344 0.003906
vt 0.339844 0.003906
vt 0.402344 0.003906
vt 0.339844 0.003906
vt 0.402344 0.003906
vt 0.339844 0.003906
vt 0.402344 0.003906
vt 0.339844 0.003906
vt 0.402344 0.003906
vt 0.339844 0.371094
vt 0.402344 0.371094
vt 0.402344 0.371094
vt 0.339844 0.371094
vt 0.339844 0.371094
vt 0.402344 0.371094
vt 0.402344 0.371094
vt 0.339844 0.371094
vt 0.339844 0.371094
vt 0.402344 0.371094
vt 0.339844 0.003906
vt 0.402344 0.003906
vt 0.339844 0.003906
vt 0.402344 0.003906
vt 0.339844 0.003906
vt 0.402344 0.003906
vt 0.339844 0.003906
vt 0.402344 0.003906
vt 0.339844 0.003906
vt 0.402344 0.003906
vt 0.339844 0.371094
vt 0.402344 0.371094
vt 0.402344 0.371094
vt 0.339844 0.371094
vt 0.339844 0.371094
vt 0.402344 0.371094
vt 0.402344 0.371094
vt 0.339844 0.371094
vt 0.339844 0.371094
vt 0.402344 0.371094
vt 0.339844 0.003906
vt 0.402344 0.003906
vt 0.339844 0.003906
vt 0.402344 0.003906
vt 0.339844 0.003906
vt 0.402344 0.003906
vt 0.339844 0.003906
vt 0.402344 0.003906
vt 0.339844 0.003906
vt 0.402344 0.003906
s 1
f 64/96 4/5 63/95
f 4/5 109/157 63/95
f 229/320 110/158 232/323
f 36/60 7/11 37/62
f 109/157 8/13 63/95
f 42/69 41/68 5/8
f 23/35 58/89 66/100
f 8/13 64/96 63/95
f 52/83 85/121 73/109
f 56/87 11/16 57/88
f 29/45 65/97 64/96
f 21/33 52/83 73/109
f 59/90 30/47 48/77
f 5/8 41/68 122/175
f 43/70 19/31 44/71
f 27/43 61/93 62/94
f 126/179 55/86 54/85
f 54/85 56/87 57/88
f 71/106 25/39 23/36
f 13/20 21/33 73/109
f 52/83 58/89 53/84
f 75/111 28/44 32/52
f 25/39 71/106 13/22
f 57/88 120/172 9/14
f 59/90 16/26 31/50
f 32/51 77/113 74/110
f 51/82 32/52 50/81
f 9/14 122/175 54/85
f 67/102 50/80 32/51
f 61/93 16/27 62/94
f 26/41 23/36 25/39
f 48/78 6/10 16/27
f 5/9 9/14 120/172
f 110/158 187/263 188/264
f 20/32 50/81 27/43
f 67/102 32/51 74/110
f 30/47 123/176 126/179
f 123/176 59/90 31/50
f 66/100 21/33 71/106
f 13/21 73/109 39/65
f 34/56 35/58 3/4
f 120/172 11/17 14/23
f 10/15 11/17 12/19
f 14/23 5/9 120/172
f 67/101 27/42 50/80
f 27/43 60/92 20/32
f 39/65 45/73 13/21
f 66/100 71/106 23/35
f 74/110 76/112 33/54
f 26/40 206/288 22/34
f 22/34 24/37 23/36
f 59/90 123/176 30/47
f 6/10 62/94 16/27
f 5/7 122/175 9/14
f 18/29 124/177 30/48
f 30/48 49/79 48/78
f 15/25 11/17 10/15
f 59/91 48/77 16/26
f 28/44 82/118 32/52
f 37/62 79/115 28/44
f 67/102 33/54 27/42
f 74/110 33/54 67/102
f 123/176 125/178 126/179
f 57/88 11/16 120/172
f 9/14 54/85 57/88
f 65/97 19/30 64/96
f 79/115 81/117 83/119
f 82/118 79/115 83/119
f 107/155 112/160 114/162
f 78/114 84/120 81/117
f 200/280 199/278 233/324
f 113/161 114/162 112/160
f 107/155 95/134 87/123
f 100/140 52/83 239/332
s 0
f 86/122 111/159 68/103
f 216/303 215/302 201/282
s 1
f 216/303 232/323 217/304
f 104/149 87/123 88/125
s 0
f 111/159 232/323 110/158
s 1
f 224/314 235/328 233/324
f 32/52 82/118 108/156
f 92/131 85/121 52/83
f 100/140 92/131 52/83
f 13/21 202/283 201/281
f 70/105 90/128 89/126
f 97/137 89/127 99/139
f 216/303 202/283 45/73
f 47/75 106/154 117/166
f 77/113 239/332 52/83
f 93/132 95/134 92/131
f 115/164 112/160 116/165
f 39/65 115/164 46/74
f 99/139 93/132 92/131
f 107/155 116/165 112/160
f 13/20 201/281 198/276
f 117/166 118/168 119/169
f 26/41 199/278 200/280
f 205/287 76/112 53/84
f 22/34 72/107 24/37
f 205/287 213/300 208/293
f 105/151 210/296 206/288
s 0
f 201/282 223/313 86/122
s 1
f 101/143 99/139 92/131
f 13/22 199/278 25/39
f 227/317 100/142 224/314
f 118/168 203/284 119/169
f 107/155 118/168 106/154
f 87/123 204/286 107/155
f 72/108 58/89 24/38
f 46/74 47/75 29/46
f 13/21 45/73 202/283
f 214/301 116/165 106/154
f 77/113 53/84 76/112
f 37/62 80/116 78/114
f 94/133 212/299 211/298
f 208/293 209/295 38/64
f 209/294 96/135 38/63
f 216/303 201/282 202/283
f 214/301 47/75 46/74
f 98/138 209/295 213/300
f 72/108 211/298 183/259
f 183/259 212/299 205/287
f 88/125 211/298 210/297
f 90/128 103/147 209/294
f 229/320 45/73 8/12
f 91/130 89/127 97/136
f 183/259 53/84 58/89
f 198/276 201/282 227/317
f 38/63 61/93 33/53
f 73/109 113/161 39/65
f 233/324 199/278 224/314
f 206/288 210/296 72/107
f 208/293 33/54 76/112
f 91/130 227/317 201/282
f 239/332 81/117 100/140
f 84/120 100/142 81/117
f 45/73 29/46 8/12
f 214/301 115/163 116/165
f 251/346 36/59 37/62
f 13/22 71/106 21/33
f 224/314 199/278 198/276
f 114/162 85/121 92/131
f 91/130 86/122 240/333
s 0
f 68/103 240/333 86/122
s 1
f 90/129 99/139 89/127
f 91/130 201/282 86/122
f 46/74 115/163 214/301
f 88/125 418/758 104/149
f 108/156 77/113 32/52
s 0
f 223/313 217/304 232/323
s 1
f 101/144 91/130 97/136
f 47/75 214/301 106/154
f 92/131 95/134 114/162
f 94/133 87/123 95/134
f 198/276 227/317 224/314
f 91/130 240/333 89/127
f 102/145 204/286 87/123
f 92/131 100/141 101/143
f 128/181 35/58 18/29
f 35/58 129/182 3/4
f 131/184 18/29 30/48
f 131/184 132/185 128/181
f 128/181 130/183 127/180
f 127/180 133/186 129/182
f 154/219 158/223 156/221
f 167/237 189/265 166/235
f 180/256 160/226 159/224
f 159/225 41/68 43/70
s 0
f 181/257 182/258 168/239
s 1
f 30/48 155/220 131/184
f 193/271 126/179 54/85
f 157/222 122/175 41/68
f 136/189 143/199 144/200
f 44/71 153/218 180/256
f 70/105 139/194 69/104
f 147/204 142/198 146/203
f 145/201 147/204 138/193
f 141/197 149/208 148/205
f 141/197 158/223 144/200
f 158/223 141/197 134/187
f 141/197 54/85 134/187
f 148/206 54/85 141/197
f 43/70 180/256 159/224
f 144/200 142/198 141/197
f 144/200 154/219 136/189
f 158/223 157/222 156/221
f 160/226 154/219 156/221
f 159/225 156/221 157/222
f 44/71 161/227 153/218
f 161/227 162/229 153/218
f 5/7 165/233 168/238
f 15/25 166/235 14/23
f 162/229 170/241 171/243
f 148/207 191/269 192/270
f 5/8 169/240 42/69
f 137/191 424/778 435/802
f 125/178 172/244 55/86
f 31/50 175/250 125/178
f 150/210 171/243 170/241
f 136/189 154/219 171/243
f 154/219 162/229 171/243
f 10/15 121/173 173/245
f 166/235 5/9 14/23
f 61/93 40/66 31/49
f 56/87 121/174 12/18
f 35/58 34/55 228/318
f 172/244 179/255 178/254
f 152/215 173/245 121/173
f 178/254 143/199 177/253
f 103/147 139/194 176/251
f 96/135 176/251 40/66
f 179/255 142/198 178/254
f 177/253 137/191 121/174
f 164/232 178/254 177/253
f 175/250 176/252 179/255
f 121/174 164/232 177/253
f 176/252 146/203 179/255
f 180/256 153/218 160/226
f 180/256 43/70 44/71
f 182/258 169/240 168/239
f 187/263 42/69 182/258
f 182/258 42/69 169/240
f 55/86 164/232 56/87
f 5/8 168/238 169/240
s 0
f 111/159 188/264 186/262
s 1
f 140/196 145/202 138/193
f 188/264 182/258 185/261
s 0
f 111/159 135/188 68/103
s 1
f 190/268 192/270 189/265
f 42/69 19/31 43/70
s 0
f 186/262 168/239 135/188
s 1
f 54/85 122/175 134/187
f 165/233 191/269 168/239
f 15/24 10/15 173/245
f 148/207 133/186 130/183
f 189/265 192/270 166/235
f 140/196 135/188 168/239
f 136/189 151/214 137/191
f 193/271 132/185 131/184
f 165/233 192/270 191/269
f 148/206 193/271 54/85
f 193/271 148/206 130/183
f 147/204 139/195 138/193
f 155/220 30/48 126/179
f 149/208 147/204 145/201
f 140/196 149/209 145/202
f 140/196 168/239 191/269
s 0
f 186/262 185/261 181/257
s 1
f 192/270 165/233 166/235
s 0
f 68/103 194/272 184/260
s 1
f 105/151 432/795 210/296
s 0
f 200/279 233/325 235/327
f 235/327 241/334 200/279
s 1
f 89/127 184/260 70/105
f 140/196 194/272 135/188
f 140/196 138/193 194/272
f 184/260 138/193 70/105
s 0
f 190/267 167/236 195/273
s 1
f 152/215 121/173 435/801
s 0
f 167/236 190/267 189/266
s 1
f 190/267 195/273 133/186
f 195/273 197/275 133/186
f 197/275 129/182 133/186
f 129/182 196/274 3/4
f 241/334 84/120 243/336
f 93/132 213/300 212/299
f 82/118 81/117 239/332
f 235/327 84/120 241/334
f 80/116 7/11 242/335
f 26/40 200/280 206/288
f 80/116 243/336 84/120
f 15/24 173/245 167/237
s 0
f 195/273 167/237 173/245
f 17/28 230/321 221/308
f 230/321 173/246 221/308
f 17/28 252/348 2/3
f 206/289 252/348 247/340
f 34/57 226/316 228/319
f 36/61 251/347 250/345
f 252/348 241/334 244/337
f 250/345 238/331 254/350
f 251/347 237/330 250/345
f 220/307 222/309 231/322
f 230/321 222/309 218/305
f 248/341 246/339 253/349
f 238/331 226/316 234/326
f 228/319 237/330 236/329
s 1
f 228/319 60/92 49/79
f 21/33 66/100 52/83
s 0
f 34/57 219/306 226/316
f 220/307 226/316 218/305
f 218/305 225/315 195/273
f 219/306 218/305 226/316
s 1
f 225/315 197/275 195/273
s 0
f 225/315 218/305 219/306
s 1
f 196/274 197/275 225/315
f 196/274 34/56 3/4
f 34/57 225/315 219/306
s 0
f 1/1 222/309 230/321
f 241/334 206/288 200/280
s 1
f 51/82 60/92 251/347
s 0
f 36/61 250/345 245/338
f 250/345 246/339 244/337
f 244/337 241/334 249/344
f 245/338 250/345 244/337
s 1
f 249/344 241/334 243/336
s 0
f 249/344 245/338 244/337
s 1
f 242/335 249/344 243/336
f 242/335 7/11 36/60
f 36/61 249/344 242/335
s 0
f 252/348 248/341 1/1
f 251/347 236/329 237/330
f 228/319 226/316 237/330
s 1
f 35/58 228/318 18/29
f 251/346 37/62 28/44
s 0
f 250/345 237/330 238/331
f 238/331 237/330 226/316
f 220/307 234/326 226/316
f 250/345 254/350 246/339
f 220/307 218/305 222/309
f 230/321 218/305 195/273
f 252/348 244/337 248/341
f 248/341 244/337 246/339
f 1/1 230/321 2/3
f 252/348 1/1 2/3
s 1
f 152/215 174/249 173/245
f 300/500 350/617 255/351
f 300/501 267/391 256/357
f 348/614 286/454 349/615
f 341/602 306/515 293/481
f 297/491 291/475 287/456
f 266/387 270/400 271/402
f 1/2 286/454 222/310
f 320/550 334/591 324/558
f 351/619 298/493 386/686
f 289/469 282/440 292/477
f 315/540 410/731 312/533
f 292/479 302/504 301/503
f 290/471 297/491 287/457
f 276/420 314/537 258/360
f 276/421 312/534 410/730
f 266/387 351/621 265/386
f 284/445 303/505 259/364
f 280/434 388/692 350/616
f 356/629 298/494 388/690
f 267/392 269/396 256/356
f 278/426 316/541 315/540
f 322/554 321/552 323/556
f 321/553 324/559 323/557
f 296/488 269/397 279/429
f 262/374 261/370 257/358
f 339/599 282/442 306/515
f 307/516 288/464 287/458
f 296/489 299/497 281/436
f 399/711 337/596 400/713
f 331/585 302/504 305/512
f 264/383 314/538 354/624
f 336/594 397/708 345/609
f 348/614 293/481 295/484
f 297/492 286/455 295/484
f 328/575 296/490 331/583
f 354/624 389/695 255/352
f 326/562 333/588 296/485
f 222/311 290/472 287/459
f 337/597 345/610 400/714
f 319/549 335/593 334/590
f 275/417 277/424 294/482
f 329/577 326/563 340/600
f 326/564 328/574 327/570
f 310/525 270/398 309/521
f 268/394 174/248 263/376
f 326/565 347/612 330/581
f 298/495 354/625 388/691
f 328/576 305/513 327/571
f 355/626 280/435 300/498
f 347/612 326/566 327/572
f 354/625 350/618 388/691
f 330/582 338/598 340/601
f 263/379 260/367 268/394
f 275/418 262/375 274/410
f 257/359 278/425 304/510
f 248/342 326/567 329/578
f 412/735 273/408 311/530
f 340/601 325/560 329/579
f 351/620 356/630 355/626
f 309/520 265/384 303/505
f 262/373 407/725 283/444
f 304/511 355/627 300/499
f 265/386 351/621 392/700
f 289/470 275/419 287/460
f 346/611 341/602 332/587
f 330/582 346/611 332/587
f 257/358 407/725 262/374
f 340/600 326/568 330/581
f 285/450 263/376 174/247
f 287/461 288/465 289/468
f 344/608 398/710 397/707
f 276/422 316/543 412/734
f 327/573 346/611 347/613
f 274/413 411/733 277/423
f 248/343 329/580 325/561
f 262/375 283/444 274/411
f 270/399 265/385 309/521
f 313/536 409/729 274/411
f 364/646 361/639 363/643
f 366/650 359/635 365/647
f 363/644 357/631 362/641
f 362/642 358/634 366/649
f 365/648 360/638 364/645
f 259/366 303/506 392/700
f 260/367 312/535 258/363
f 407/725 257/359 390/698
f 374/666 371/659 373/663
f 376/669 369/655 375/667
f 373/664 367/651 372/661
f 376/670 367/652 368/653
f 375/668 370/658 374/665
f 315/539 304/511 278/425
f 343/606 399/712 398/709
f 401/715 396/705 394/703
f 406/723 313/536 283/444
f 259/366 392/700 312/535
f 393/701 403/718 395/704
f 396/705 377/671 394/703
f 257/359 304/510 390/698
f 379/674 393/701 395/704
f 412/736 389/696 314/537
f 288/467 306/515 282/442
f 385/684 352/622 281/437
f 352/622 382/679 308/518
f 387/689 281/439 299/496
f 332/587 348/614 338/598
f 308/519 381/677 383/681
f 287/462 291/475 307/516
f 255/355 261/371 267/388
f 311/532 278/427 389/693
f 353/623 312/535 392/700
f 287/463 275/414 294/483
f 296/486 279/430 267/389
f 256/357 390/698 304/510
f 383/682 391/699 390/698
f 285/449 284/446 263/377
f 269/395 308/518 383/681
f 281/437 352/622 308/518
f 383/681 390/698 256/357
f 256/356 269/396 383/681
f 269/397 281/437 308/518
f 291/476 295/484 293/481
f 407/725 406/724 283/443
f 291/476 306/515 307/517
f 274/411 283/444 313/536
f 310/526 207/290 270/401
f 270/401 105/152 271/402
f 318/547 322/555 335/592
f 265/386 392/700 303/506
f 353/623 351/621 355/626
f 222/312 286/454 290/473
f 256/357 304/510 300/499
f 1/2 325/561 349/615
f 325/561 348/614 349/615
f 339/599 305/514 302/504
f 278/428 261/372 389/694
f 263/378 284/446 259/365
s 0
f 296/487 279/431 331/584
s 1
f 275/415 261/368 272/403
f 396/706 380/676 378/672
f 407/726 391/699 405/721
s 0
f 275/416 292/478 272/404
s 1
f 404/720 396/706 402/716
s 0
f 292/478 301/502 272/404
f 272/404 301/502 261/369
f 267/390 301/502 279/431
f 279/431 301/502 331/584
s 1
f 261/371 301/502 267/390
s 0
f 247/340 266/387 271/402
f 258/363 266/387 17/28
f 221/308 260/367 17/28
f 221/308 152/217 268/393
s 1
f 422/769 459/846 441/814
f 458/845 413/738 427/784
f 285/453 442/818 457/844
f 285/452 428/787 456/843
f 443/820 431/793 415/745
f 430/791 429/789 416/748
f 419/759 453/840 440/811
f 414/741 452/839 426/781
f 203/285 433/797 119/170
f 451/836 417/753 104/148
f 450/835 420/764 436/804
f 163/231 438/807 421/767
f 447/830 437/806 423/773
f 174/249 435/802 424/778
f 424/777 151/212 448/832
f 423/774 448/832 151/212
f 437/805 442/817 448/832
f 285/451 448/832 442/817
f 170/242 438/808 150/211
f 150/211 423/775 151/213
f 434/799 447/830 420/763
f 419/760 449/833 434/799
f 439/809 437/806 449/833
f 161/228 44/72 447/831
f 161/228 423/776 438/807
f 446/828 436/804 417/752
f 446/829 444/823 450/834
f 444/824 434/800 450/835
f 119/171 433/798 117/167
f 117/167 417/754 436/803
f 117/167 436/803 47/76
f 418/756 451/836 104/148
f 443/819 451/836 418/757
f 451/837 415/746 446/829
f 121/173 137/190 435/801
f 207/292 310/526 418/758
f 102/146 417/755 433/797
f 416/749 452/839 445/825
f 429/788 303/507 452/838
f 452/838 303/508 426/782
f 415/747 453/840 444/822
f 416/750 453/840 431/794
f 453/840 414/742 440/811
f 309/522 454/841 430/791
f 174/247 424/778 285/450
f 429/789 454/841 309/524
f 310/527 455/842 443/820
f 310/529 309/523 430/792
f 455/842 416/751 431/793
f 425/780 428/787 413/737
f 425/780 303/507 284/448
f 442/818 441/816 457/844
f 457/844 413/739 428/786
f 285/451 457/844 428/786
f 414/743 458/845 427/784
f 426/783 303/507 458/845
f 458/845 303/508 425/779
f 439/810 440/812 459/846
f 440/813 427/785 459/847
f 459/847 413/740 441/815
f 285/452 456/843 284/447
f 420/765 47/76 436/803
f 44/72 420/766 447/831
f 432/796 207/292 418/758
f 432/795 88/124 210/296
f 443/819 418/757 310/528
f 429/789 309/524 303/509
f 310/529 430/792 455/842
f 425/780 284/448 456/843
f 424/777 448/832 285/453
f 527/982 522/973 523/974
f 509/946 500/929 501/930
f 465/858 464/857 460/848
f 479/886 470/869 471/870
f 548/1024 541/1011 542/1012
f 475/879 474/876 470/868
f 569/1066 562/1052 561/1050
f 560/1049 569/1067 561/1051
f 518/964 511/950 512/952
f 499/926 490/909 491/910
f 508/944 501/931 502/932
f 488/904 481/891 482/892
f 477/882 472/873 473/874
f 563/1054 566/1060 564/1056
f 558/1044 551/1031 552/1032
f 525/978 524/977 520/968
f 517/962 512/953 513/954
f 528/985 521/970 522/972
f 496/920 493/915 494/916
f 478/885 471/871 472/872
f 563/1055 568/1065 567/1062
f 578/1084 571/1071 572/1072
f 579/1087 570/1069 571/1070
f 495/919 494/917 490/908
f 498/924 491/911 492/912
f 537/1002 532/992 533/994
f 485/898 484/897 480/888
f 487/902 482/893 483/894
f 531/991 538/1005 539/1006
f 526/981 523/975 524/976
f 507/942 502/933 503/934
f 469/866 460/849 461/850
f 468/864 461/851 462/852
f 497/923 492/913 493/914
f 521/971 525/979 520/969
f 515/958 511/951 519/966
f 516/960 513/955 514/956
f 467/862 462/853 463/854
f 506/940 503/935 504/936
f 557/1042 552/1033 553/1034
f 536/1000 533/995 534/996
f 535/998 534/997 530/988
f 486/901 483/895 484/896
f 549/1027 540/1009 541/1010
f 547/1022 542/1013 543/1014
f 544/1016 547/1023 543/1015
f 545/1019 544/1017 540/1008
f 474/877 477/883 473/875
f 559/1047 550/1029 551/1030
f 556/1040 553/1035 554/1036
f 555/1039 554/1037 550/1028
f 466/861 463/855 464/856
f 515/959 514/957 510/948
f 505/939 504/937 500/928
f 577/1082 572/1073 573/1074
f 576/1080 573/1075 574/1076
f 575/1079 574/1077 570/1068
f 564/1057 565/1059 560/1048
f 539/1007 530/989 531/990
f 489/907 480/889 481/890
s 0
f 585/1093 581/1089 584/1092
f 580/1088 585/1093 587/1095
f 589/1097 585/1093 588/1096
f 588/1096 584/1092 590/1098
f 592/1100 590/1098 594/1102
f 593/1101 588/1096 592/1100
f 590/1098 586/1094 591/1099
f 584/1092 583/1091 586/1094
f 581/1089 595/1103 583/1091
f 582/1090 594/1102 581/1089
f 582/1090 593/1101 592/1100
f 593/1101 583/1091 595/1103
f 587/1095 583/1091 580/1088
f 589/1097 586/1094 587/1095
f 593/1101 591/1099 589/1097
s 1
f 613/1139 610/1132 612/1136
f 612/1137 606/1124 611/1134
f 615/1143 608/1128 614/1140
f 611/1135 607/1127 615/1142
f 614/1141 609/1131 613/1138
f 598/1109 601/1114 599/1110
f 599/1111 605/1122 600/1112
f 596/1104 603/1118 597/1106
f 596/1105 605/1123 604/1120
f 597/1107 602/1117 598/1108
f 623/1159 620/1152 622/1156
f 622/1157 616/1144 621/1154
f 625/1163 618/1148 624/1160
f 621/1155 617/1147 625/1162
f 624/1161 619/1151 623/1158
f 636/1185 643/1198 637/1186
f 640/1193 644/1201 636/1184
f 637/1187 642/1196 638/1188
f 639/1191 645/1203 640/1192
f 638/1189 641/1195 639/1190
f 627/1167 632/1176 628/1168
f 630/1173 634/1180 626/1164
f 626/1165 633/1179 627/1166
f 629/1171 635/1183 630/1172
f 628/1169 631/1175 629/1170
f 663/1239 660/1232 662/1236
f 662/1237 656/1224 661/1234
f 665/1242 658/1228 664/1240
f 665/1243 656/1225 657/1226
f 664/1241 659/1231 663/1238
f 648/1209 651/1214 649/1210
f 649/1211 655/1222 650/1212
f 646/1205 653/1218 647/1206
f 650/1213 654/1221 646/1204
f 647/1207 652/1217 648/1208
f 673/1259 670/1252 672/1256
f 672/1257 666/1244 671/1254
f 675/1263 668/1248 674/1260
f 671/1255 667/1247 675/1262
f 674/1261 669/1251 673/1258
f 686/1285 693/1298 687/1286
f 690/1293 694/1301 686/1284
f 687/1287 692/1296 688/1288
f 689/1291 695/1303 690/1292
f 688/1289 691/1295 689/1290
f 677/1267 682/1276 678/1268
f 680/1273 684/1280 676/1264
f 676/1265 683/1279 677/1266
f 679/1271 685/1283 680/1272
f 678/1269 681/1275 679/1270
f 713/1339 710/1332 712/1336
f 712/1337 706/1324 711/1334
f 715/1343 708/1328 714/1340
f 711/1335 707/1327 715/1342
f 714/1341 709/1331 713/1338
f 698/1309 701/1314 699/1310
f 699/1311 705/1322 700/1312
f 696/1305 703/1318 697/1306
f 700/1313 704/1321 696/1304
f 697/1307 702/1317 698/1308
f 723/1359 720/1352 722/1356
f 722/1357 716/1344 721/1354
f 725/1363 718/1348 724/1360
f 721/1355 717/1347 725/1362
f 724/1361 719/1351 723/1358
f 736/1385 743/1398 737/1386
f 740/1393 744/1401 736/1384
f 737/1387 742/1396 738/1388
f 739/1391 745/1403 740/1392
f 738/1389 741/1395 739/1390
f 727/1367 732/1376 728/1368
f 730/1373 734/1380 726/1364
f 726/1365 733/1379 727/1366
f 729/1371 735/1383 730/1372
f 728/1369 731/1375 729/1370
f 763/1439 760/1432 762/1436
f 762/1437 756/1424 761/1434
f 764/1440 757/1426 758/1428
f 761/1435 757/1427 765/1442
f 764/1441 759/1431 763/1438
f 748/1409 751/1414 749/1410
f 750/1412 751/1415 755/1422
f 746/1405 753/1418 747/1406
f 750/1413 754/1421 746/1404
f 747/1407 752/1417 748/1408
f 773/1459 770/1452 772/1456
f 772/1457 766/1444 771/1454
f 775/1463 768/1448 774/1460
f 771/1455 767/1447 775/1462
f 774/1461 769/1451 773/1458
f 786/1485 793/1498 787/1486
f 790/1492 794/1501 786/1484
f 787/1487 792/1496 788/1488
f 790/1493 791/1494 795/1502
f 788/1489 791/1495 789/1490
f 777/1467 782/1476 778/1468
f 780/1473 784/1480 776/1464
f 776/1465 783/1479 777/1466
f 779/1471 785/1483 780/1472
f 778/1469 781/1475 779/1470
f 803/1519 800/1512 802/1516
f 802/1517 796/1504 801/1514
f 805/1523 798/1508 804/1520
f 801/1515 797/1507 805/1522
f 804/1521 799/1511 803/1518
f 813/1539 810/1532 812/1536
f 812/1537 806/1524 811/1534
f 815/1542 808/1528 814/1540
f 815/1543 806/1525 807/1526
f 814/1541 809/1531 813/1538
f 823/1558 820/1552 822/1556
f 822/1557 816/1544 821/1554
f 825/1563 818/1548 824/1560
f 821/1555 817/1547 825/1562
f 823/1559 818/1549 819/1550
f 833/1579 830/1572 832/1576
f 832/1577 826/1564 831/1574
f 835/1583 828/1568 834/1580
f 831/1575 827/1567 835/1582
f 834/1581 829/1571 833/1578
f 843/1599 840/1592 842/1596
f 842/1597 836/1584 841/1594
f 845/1603 838/1588 844/1600
f 841/1595 837/1587 845/1602
f 844/1601 839/1591 843/1598
f 853/1619 850/1612 852/1616
f 852/1617 846/1604 851/1614
f 855/1623 848/1608 854/1620
f 851/1615 847/1607 855/1622
f 854/1621 849/1611 853/1618
f 863/1639 860/1632 862/1636
f 862/1637 856/1624 861/1634
f 865/1643 858/1628 864/1640
f 861/1635 857/1627 865/1642
f 864/1641 859/1631 863/1638
f 873/1659 870/1652 872/1656
f 872/1657 866/1644 871/1654
f 875/1663 868/1648 874/1660
f 871/1655 867/1647 875/1662
f 874/1661 869/1651 873/1658
s 0
f 590/1098 595/1103 594/1102
s 1
f 64/96 19/30 4/5
f 4/5 187/263 109/157
f 229/320 109/157 110/158
f 109/157 229/320 8/13
f 42/69 43/70 41/68
f 23/35 24/38 58/89
f 8/13 29/45 64/96
f 56/87 12/18 11/16
f 29/45 47/75 65/97
f 27/43 33/53 61/93
f 126/179 125/178 55/86
f 54/85 55/86 56/87
f 52/83 66/100 58/89
f 75/111 251/346 28/44
f 51/82 75/111 32/52
f 61/93 31/49 16/27
f 26/41 22/34 23/36
f 48/78 49/79 6/10
f 110/158 109/157 187/263
f 20/32 51/82 50/81
f 27/43 62/94 60/92
f 39/65 46/74 45/73
f 74/110 77/113 76/112
f 6/10 60/92 62/94
f 18/29 228/318 124/177
f 30/48 124/177 49/79
f 15/25 14/23 11/17
f 28/44 79/115 82/118
f 37/62 78/114 79/115
f 123/176 31/50 125/178
f 65/97 44/71 19/30
f 79/115 78/114 81/117
f 78/114 80/116 84/120
f 113/161 85/121 114/162
f 107/155 114/162 95/134
s 0
f 86/122 223/313 111/159
f 216/303 217/304 215/302
s 1
f 216/303 229/320 232/323
f 104/149 102/145 87/123
s 0
f 111/159 223/313 232/323
s 1
f 224/314 100/142 235/328
f 70/105 69/104 90/128
f 77/113 108/156 239/332
f 93/132 94/133 95/134
f 115/164 113/161 112/160
f 39/65 113/161 115/164
f 99/139 98/138 93/132
f 107/155 106/154 116/165
f 117/166 106/154 118/168
f 26/41 25/39 199/278
f 205/287 208/293 76/112
f 22/34 206/288 72/107
f 205/287 212/299 213/300
s 0
f 201/282 215/302 223/313
s 1
f 101/143 97/137 99/139
f 13/22 198/277 199/278
f 227/317 101/144 100/142
f 118/168 204/286 203/284
f 107/155 204/286 118/168
f 72/108 183/259 58/89
f 77/113 52/83 53/84
f 37/62 7/11 80/116
f 94/133 93/132 212/299
f 208/293 213/300 209/295
f 209/294 103/147 96/135
f 98/138 90/129 209/295
f 72/108 210/297 211/298
f 183/259 211/298 212/299
f 88/125 94/133 211/298
f 90/128 69/104 103/147
f 229/320 216/303 45/73
f 183/259 205/287 53/84
f 38/63 96/135 61/93
f 73/109 85/121 113/161
f 208/293 38/64 33/54
f 84/120 235/328 100/142
f 45/73 46/74 29/46
s 0
f 68/103 184/260 240/333
s 1
f 90/129 98/138 99/139
f 88/125 432/796 418/758
s 0
f 223/313 215/302 217/304
s 1
f 101/144 227/317 91/130
f 94/133 88/125 87/123
f 102/145 203/284 204/286
f 128/181 127/180 35/58
f 35/58 127/180 129/182
f 131/184 128/181 18/29
f 128/181 132/185 130/183
f 127/180 130/183 133/186
f 159/225 157/222 41/68
s 0
f 181/257 185/261 182/258
s 1
f 193/271 155/220 126/179
f 157/222 134/187 122/175
f 136/189 137/191 143/199
f 70/105 138/192 139/194
f 147/204 141/197 142/198
f 144/200 143/199 142/198
f 144/200 158/223 154/219
f 158/223 134/187 157/222
f 160/226 153/218 154/219
f 159/225 160/226 156/221
f 161/227 163/230 162/229
f 15/25 167/237 166/235
f 162/229 163/230 170/241
f 148/207 149/209 191/269
f 137/191 151/214 424/778
f 125/178 175/250 172/244
f 31/50 40/67 175/250
f 150/210 136/189 171/243
f 154/219 153/218 162/229
f 10/15 12/19 121/173
f 166/235 165/234 5/9
f 61/93 96/135 40/66
f 56/87 164/232 121/174
f 172/244 175/250 179/255
f 178/254 142/198 143/199
f 103/147 69/104 139/194
f 96/135 103/147 176/251
f 179/255 146/203 142/198
f 177/253 143/199 137/191
f 164/232 172/244 178/254
f 175/250 40/67 176/252
f 176/252 139/195 146/203
f 187/263 4/6 42/69
f 55/86 172/244 164/232
s 0
f 111/159 110/158 188/264
s 1
f 188/264 187/263 182/258
s 0
f 111/159 186/262 135/188
s 1
f 190/268 148/207 192/270
f 42/69 4/6 19/31
s 0
f 186/262 181/257 168/239
s 1
f 148/207 190/268 133/186
f 136/189 150/210 151/214
f 131/184 155/220 193/271
f 193/271 130/183 132/185
f 147/204 146/203 139/195
f 149/208 141/197 147/204
f 140/196 191/269 149/209
s 0
f 186/262 188/264 185/261
f 68/103 135/188 194/272
s 1
f 89/127 240/333 184/260
f 184/260 194/272 138/193
f 197/275 196/274 129/182
f 93/132 98/138 213/300
f 239/332 108/156 82/118
f 82/118 83/119 81/117
f 80/116 242/335 243/336
s 0
f 17/28 2/3 230/321
f 230/321 195/273 173/246
f 17/28 247/340 252/348
f 206/289 241/334 252/348
s 1
f 49/79 124/177 228/319
f 228/319 236/329 60/92
f 60/92 6/10 49/79
f 34/57 196/274 225/315
f 251/347 75/111 51/82
f 51/82 20/32 60/92
f 60/92 236/329 251/347
f 36/61 245/338 249/344
f 300/500 280/433 350/617
f 300/501 255/353 267/391
f 348/614 295/484 286/454
f 341/602 339/599 306/515
f 266/387 265/386 270/400
f 1/2 349/615 286/454
f 320/550 319/548 334/591
f 351/619 264/380 298/493
f 289/469 288/466 282/440
f 315/540 316/541 410/731
f 292/479 282/441 302/504
f 276/420 412/736 314/537
f 276/421 258/361 312/534
f 266/387 264/381 351/621
f 280/434 356/628 388/692
f 356/629 386/687 298/494
f 267/392 279/432 269/396
f 278/426 273/407 316/541
f 322/554 317/544 321/552
f 321/553 320/551 324/559
f 296/488 281/438 269/397
f 262/374 272/405 261/370
f 339/599 302/504 282/442
f 296/489 333/589 299/497
f 399/711 342/603 337/596
f 331/585 301/503 302/504
f 264/383 258/362 314/538
f 336/594 344/607 397/708
f 348/614 341/602 293/481
f 297/492 290/474 286/455
f 328/575 326/569 296/490
f 354/624 314/538 389/695
f 337/597 336/595 345/610
f 319/549 318/546 335/593
f 275/417 274/412 277/424
f 268/394 152/216 174/248
f 298/495 264/382 354/625
f 328/576 331/586 305/513
f 355/626 356/630 280/435
f 354/625 255/354 350/618
f 330/582 332/587 338/598
f 263/379 259/366 260/367
f 275/418 272/406 262/375
f 412/735 316/542 273/408
f 340/601 338/598 325/560
f 351/620 386/688 356/630
f 304/511 353/623 355/627
f 289/470 292/480 275/419
f 346/611 339/599 341/602
f 330/582 347/613 346/611
f 344/608 343/605 398/710
f 276/422 410/732 316/543
f 327/573 305/514 346/611
f 274/413 409/728 411/733
f 313/536 408/727 409/729
f 364/646 360/637 361/639
f 366/650 358/633 359/635
f 363/644 361/640 357/631
f 362/642 357/632 358/634
f 365/648 359/636 360/638
f 260/367 259/366 312/535
f 374/666 370/657 371/659
f 376/669 368/654 369/655
f 373/664 371/660 367/651
f 376/670 372/662 367/652
f 375/668 369/656 370/658
f 315/539 353/623 304/511
f 343/606 342/604 399/712
f 401/715 402/717 396/705
f 406/723 408/727 313/536
f 393/701 404/719 403/718
f 396/705 378/673 377/671
f 379/674 380/675 393/701
f 412/736 311/531 389/696
f 288/467 307/517 306/515
f 385/684 384/683 352/622
f 352/622 384/683 382/679
f 387/689 385/685 281/439
f 332/587 341/602 348/614
f 308/519 382/680 381/677
f 255/355 389/697 261/371
f 311/532 273/409 278/427
f 353/623 315/540 312/535
f 383/682 381/678 391/699
f 291/476 297/492 295/484
f 407/725 405/722 406/724
f 291/476 293/481 306/515
f 270/401 207/291 105/152
f 318/547 317/545 322/555
f 353/623 392/700 351/621
f 1/2 248/343 325/561
f 325/561 338/598 348/614
f 339/599 346/611 305/514
f 278/428 257/359 261/372
f 396/706 393/702 380/676
f 407/726 390/698 391/699
f 404/720 393/702 396/706
s 0
f 247/340 17/28 266/387
f 17/28 260/367 258/363
f 258/363 264/383 266/387
f 221/308 268/394 260/367
f 221/308 173/246 152/217
s 1
f 422/769 439/810 459/846
f 458/845 425/779 413/738
f 443/820 455/842 431/793
f 430/791 454/841 429/789
f 419/759 444/822 453/840
f 414/741 445/825 452/839
f 203/285 102/146 433/797
f 451/836 446/827 417/753
f 450/835 434/800 420/764
f 163/231 161/228 438/807
f 447/830 449/833 437/806
f 174/249 152/217 435/802
f 423/774 437/805 448/832
f 437/805 422/770 442/817
f 170/242 421/768 438/808
f 150/211 438/808 423/775
f 434/799 449/833 447/830
f 419/760 439/809 449/833
f 439/809 422/771 437/806
f 161/228 447/831 423/776
f 446/828 450/835 436/804
f 446/829 415/746 444/823
f 444/824 419/761 434/800
f 117/167 433/798 417/754
f 451/837 443/821 415/746
f 102/146 104/150 417/755
f 416/749 429/790 452/839
f 415/747 431/794 453/840
f 416/750 445/826 453/840
f 453/840 445/826 414/742
f 455/842 430/792 416/751
f 425/780 456/843 428/787
f 442/818 422/772 441/816
f 457/844 441/816 413/739
f 414/743 426/783 458/845
f 439/810 419/762 440/812
f 440/813 414/744 427/785
f 459/847 427/785 413/740
f 420/765 65/98 47/76
f 44/72 65/99 420/766
f 432/796 105/153 207/292
f 527/982 528/984 522/973
f 509/946 505/938 500/929
f 465/858 466/860 464/857
f 479/886 475/878 470/869
f 548/1024 549/1026 541/1011
f 475/879 476/880 474/876
f 569/1066 568/1064 562/1052
f 560/1049 565/1058 569/1067
f 518/964 519/967 511/950
f 499/926 495/918 490/909
f 508/944 509/947 501/931
f 488/904 489/906 481/891
f 477/882 478/884 472/873
f 563/1054 567/1063 566/1060
f 558/1044 559/1046 551/1031
f 525/978 526/980 524/977
f 517/962 518/965 512/953
f 528/985 529/986 521/970
f 496/920 497/922 493/915
f 478/885 479/887 471/871
f 563/1055 562/1053 568/1065
f 578/1084 579/1086 571/1071
f 579/1087 575/1078 570/1069
f 495/919 496/921 494/917
f 498/924 499/927 491/911
f 537/1002 538/1004 532/992
f 485/898 486/900 484/897
f 487/902 488/905 482/893
f 531/991 532/993 538/1005
f 526/981 527/983 523/975
f 507/942 508/945 502/933
f 469/866 465/859 460/849
f 468/864 469/867 461/851
f 497/923 498/925 492/913
f 521/971 529/987 525/979
f 515/958 510/949 511/951
f 516/960 517/963 513/955
f 467/862 468/865 462/853
f 506/940 507/943 503/935
f 557/1042 558/1045 552/1033
f 536/1000 537/1003 533/995
f 535/998 536/1001 534/997
f 486/901 487/903 483/895
f 549/1027 545/1018 540/1009
f 547/1022 548/1025 542/1013
f 544/1016 546/1020 547/1023
f 545/1019 546/1021 544/1017
f 474/877 476/881 477/883
f 559/1047 555/1038 550/1029
f 556/1040 557/1043 553/1035
f 555/1039 556/1041 554/1037
f 466/861 467/863 463/855
f 515/959 516/961 514/957
f 505/939 506/941 504/937
f 577/1082 578/1085 572/1073
f 576/1080 577/1083 573/1075
f 575/1079 576/1081 574/1077
f 564/1057 566/1061 565/1059
f 539/1007 535/999 530/989
f 489/907 485/899 480/889
s 0
f 585/1093 582/1090 581/1089
f 580/1088 582/1090 585/1093
f 589/1097 587/1095 585/1093
f 588/1096 585/1093 584/1092
f 592/1100 588/1096 590/1098
f 593/1101 589/1097 588/1096
f 590/1098 584/1092 586/1094
f 584/1092 581/1089 583/1091
f 581/1089 594/1102 595/1103
f 582/1090 592/1100 594/1102
f 582/1090 580/1088 593/1101
f 593/1101 580/1088 583/1091
f 587/1095 586/1094 583/1091
f 589/1097 591/1099 586/1094
f 593/1101 595/1103 591/1099
s 1
f 613/1139 609/1130 610/1132
f 612/1137 610/1133 606/1124
f 615/1143 607/1126 608/1128
f 611/1135 606/1125 607/1127
f 614/1141 608/1129 609/1131
f 598/1109 602/1116 601/1114
f 599/1111 601/1115 605/1122
f 596/1104 604/1121 603/1118
f 596/1105 600/1113 605/1123
f 597/1107 603/1119 602/1117
f 623/1159 619/1150 620/1152
f 622/1157 620/1153 616/1144
f 625/1163 617/1146 618/1148
f 621/1155 616/1145 617/1147
f 624/1161 618/1149 619/1151
f 636/1185 644/1200 643/1198
f 640/1193 645/1202 644/1201
f 637/1187 643/1199 642/1196
f 639/1191 641/1194 645/1203
f 638/1189 642/1197 641/1195
f 627/1167 633/1178 632/1176
f 630/1173 635/1182 634/1180
f 626/1165 634/1181 633/1179
f 629/1171 631/1174 635/1183
f 628/1169 632/1177 631/1175
f 663/1239 659/1230 660/1232
f 662/1237 660/1233 656/1224
f 665/1242 657/1227 658/1228
f 665/1243 661/1235 656/1225
f 664/1241 658/1229 659/1231
f 648/1209 652/1216 651/1214
f 649/1211 651/1215 655/1222
f 646/1205 654/1220 653/1218
f 650/1213 655/1223 654/1221
f 647/1207 653/1219 652/1217
f 673/1259 669/1250 670/1252
f 672/1257 670/1253 666/1244
f 675/1263 667/1246 668/1248
f 671/1255 666/1245 667/1247
f 674/1261 668/1249 669/1251
f 686/1285 694/1300 693/1298
f 690/1293 695/1302 694/1301
f 687/1287 693/1299 692/1296
f 689/1291 691/1294 695/1303
f 688/1289 692/1297 691/1295
f 677/1267 683/1278 682/1276
f 680/1273 685/1282 684/1280
f 676/1265 684/1281 683/1279
f 679/1271 681/1274 685/1283
f 678/1269 682/1277 681/1275
f 713/1339 709/1330 710/1332
f 712/1337 710/1333 706/1324
f 715/1343 707/1326 708/1328
f 711/1335 706/1325 707/1327
f 714/1341 708/1329 709/1331
f 698/1309 702/1316 701/1314
f 699/1311 701/1315 705/1322
f 696/1305 704/1320 703/1318
f 700/1313 705/1323 704/1321
f 697/1307 703/1319 702/1317
f 723/1359 719/1350 720/1352
f 722/1357 720/1353 716/1344
f 725/1363 717/1346 718/1348
f 721/1355 716/1345 717/1347
f 724/1361 718/1349 719/1351
f 736/1385 744/1400 743/1398
f 740/1393 745/1402 744/1401
f 737/1387 743/1399 742/1396
f 739/1391 741/1394 745/1403
f 738/1389 742/1397 741/1395
f 727/1367 733/1378 732/1376
f 730/1373 735/1382 734/1380
f 726/1365 734/1381 733/1379
f 729/1371 731/1374 735/1383
f 728/1369 732/1377 731/1375
f 763/1439 759/1430 760/1432
f 762/1437 760/1433 756/1424
f 764/1440 765/1443 757/1426
f 761/1435 756/1425 757/1427
f 764/1441 758/1429 759/1431
f 748/1409 752/1416 751/1414
f 750/1412 749/1411 751/1415
f 746/1405 754/1420 753/1418
f 750/1413 755/1423 754/1421
f 747/1407 753/1419 752/1417
f 773/1459 769/1450 770/1452
f 772/1457 770/1453 766/1444
f 775/1463 767/1446 768/1448
f 771/1455 766/1445 767/1447
f 774/1461 768/1449 769/1451
f 786/1485 794/1500 793/1498
f 790/1492 795/1503 794/1501
f 787/1487 793/1499 792/1496
f 790/1493 789/1491 791/1494
f 788/1489 792/1497 791/1495
f 777/1467 783/1478 782/1476
f 780/1473 785/1482 784/1480
f 776/1465 784/1481 783/1479
f 779/1471 781/1474 785/1483
f 778/1469 782/1477 781/1475
f 803/1519 799/1510 800/1512
f 802/1517 800/1513 796/1504
f 805/1523 797/1506 798/1508
f 801/1515 796/1505 797/1507
f 804/1521 798/1509 799/1511
f 813/1539 809/1530 810/1532
f 812/1537 810/1533 806/1524
f 815/1542 807/1527 808/1528
f 815/1543 811/1535 806/1525
f 814/1541 808/1529 809/1531
f 823/1558 819/1551 820/1552
f 822/1557 820/1553 816/1544
f 825/1563 817/1546 818/1548
f 821/1555 816/1545 817/1547
f 823/1559 824/1561 818/1549
f 833/1579 829/1570 830/1572
f 832/1577 830/1573 826/1564
f 835/1583 827/1566 828/1568
f 831/1575 826/1565 827/1567
f 834/1581 828/1569 829/1571
f 843/1599 839/1590 840/1592
f 842/1597 840/1593 836/1584
f 845/1603 837/1586 838/1588
f 841/1595 836/1585 837/1587
f 844/1601 838/1589 839/1591
f 853/1619 849/1610 850/1612
f 852/1617 850/1613 846/1604
f 855/1623 847/1606 848/1608
f 851/1615 846/1605 847/1607
f 854/1621 848/1609 849/1611
f 863/1639 859/1630 860/1632
f 862/1637 860/1633 856/1624
f 865/1643 857/1626 858/1628
f 861/1635 856/1625 857/1627
f 864/1641 858/1629 859/1631
f 873/1659 869/1650 870/1652
f 872/1657 870/1653 866/1644
f 875/1663 867/1646 868/1648
f 871/1655 866/1645 867/1647
f 874/1661 868/1649 869/1651
s 0
f 590/1098 591/1099 595/1103
